<?xml version="1.0" encoding="UTF-8" standalone="no"?>
<svg
   id="svg22007"
   viewBox="0 0 496.19398 935.783"
   version="1.1"
   sodipodi:docname="books.svg"
   inkscape:version="1.2.2 (b0a8486541, 2022-12-01)"
   width="496.194"
   height="935.78302"
   xmlns:inkscape="http://www.inkscape.org/namespaces/inkscape"
   xmlns:sodipodi="http://sodipodi.sourceforge.net/DTD/sodipodi-0.dtd"
   xmlns="http://www.w3.org/2000/svg"
   xmlns:svg="http://www.w3.org/2000/svg"
   xmlns:rdf="http://www.w3.org/1999/02/22-rdf-syntax-ns#"
   xmlns:cc="http://creativecommons.org/ns#"
   xmlns:dc="http://purl.org/dc/elements/1.1/">
  <defs
     id="defs21803" />
  <sodipodi:namedview
     id="namedview21801"
     pagecolor="#505050"
     bordercolor="#ffffff"
     borderopacity="1"
     inkscape:showpageshadow="0"
     inkscape:pageopacity="0"
     inkscape:pagecheckerboard="1"
     inkscape:deskcolor="#505050"
     showgrid="false"
     inkscape:zoom="0.42664387"
     inkscape:cx="358.61291"
     inkscape:cy="585.96881"
     inkscape:window-width="1918"
     inkscape:window-height="1055"
     inkscape:window-x="0"
     inkscape:window-y="23"
     inkscape:window-maximized="1"
     inkscape:current-layer="svg22007" />
  <metadata
     id="metadata21798">
    <rdf:RDF>
      <cc:Work>
        <dc:format>image/svg+xml</dc:format>
        <dc:type
           rdf:resource="http://purl.org/dc/dcmitype/StillImage" />
        <cc:license
           rdf:resource="http://creativecommons.org/publicdomain/zero/1.0/" />
        <dc:publisher>
          <cc:Agent
             rdf:about="http://openclipart.org/">
            <dc:title>Openclipart</dc:title>
          </cc:Agent>
        </dc:publisher>
        <dc:title>school days</dc:title>
        <dc:date>2012-09-06T11:50:21</dc:date>
        <dc:description>back to school</dc:description>
        <dc:source>http://openclipart.org/detail/172174/school-days-by-sammo241-172174</dc:source>
        <dc:creator>
          <cc:Agent>
            <dc:title>sammo241</dc:title>
          </cc:Agent>
        </dc:creator>
        <dc:subject>
          <rdf:Bag>
            <rdf:li>boy</rdf:li>
            <rdf:li>cartoon</rdf:li>
            <rdf:li>clip art</rdf:li>
            <rdf:li>clipart</rdf:li>
            <rdf:li>days</rdf:li>
            <rdf:li>school</rdf:li>
          </rdf:Bag>
        </dc:subject>
      </cc:Work>
      <cc:License
         rdf:about="http://creativecommons.org/publicdomain/zero/1.0/">
        <cc:permits
           rdf:resource="http://creativecommons.org/ns#Reproduction" />
        <cc:permits
           rdf:resource="http://creativecommons.org/ns#Distribution" />
        <cc:permits
           rdf:resource="http://creativecommons.org/ns#DerivativeWorks" />
      </cc:License>
    </rdf:RDF>
  </metadata>
  <g
     id="g24888"
     transform="translate(-52.528034,-59.38644)">
    <path
       id="path1745"
       fill="#26231f"
       d="m 306.37564,835.9557 c 0,0 -215.396338,-23.48535 -222.267082,-9.67046 -6.87447,13.81489 5.72947,71.87454 25.206392,82.92586 19.47543,11.05168 186.75084,53.89659 186.75084,53.89659 L 537.8124,874.65617 c 0,0 -44.68219,-62.18321 -36.66384,-87.06917 8.02133,-24.86658 -181.02026,38.69824 -194.77292,48.37094 z"
       style="stroke-width:3.726" />
    <path
       id="path1747"
       fill="#26231f"
       d="m 295.15292,89.71242 c 0,0 -67.79829,-25.698967 -72.3142,-23.36351 -4.51592,2.335456 -2.36594,-3.875413 -3.87393,-4.675013 -5.31998,-2.801616 -17.23498,-4.792753 -29.70292,5.063634 -1.06441,0.841778 -2.18068,5.186965 -3.22746,6.2295 l -45.84471,38.165419 12.91395,81.38329 42.29382,-8.17633 c 0,0 33.57461,-4.6698 37.12475,-5.45077 3.5517,-0.77922 66.50537,6.23136 66.50537,6.23136 l -3.87243,-95.407953 z"
       style="stroke-width:3.726" />
    <path
       id="path1749"
       fill="#26231f"
       d="m 142.23416,209.6151 c 0,0 135.50344,-24.13516 137.56392,-21.39805 2.06361,2.73716 88.27266,48.26661 88.27266,48.26661 0,0 -12.16837,24.37698 -4.53715,37.31216 l -71.99377,-16.2081 c 0,0 -143.13429,26.62004 -148.08614,24.38034 -4.95074,-2.23597 -34.44166,-60.20098 -1.2364,-72.39246 z"
       style="stroke-width:3.726" />
    <path
       id="path1751"
       fill="#26231f"
       d="m 298.78205,268.8585 c 0,0 6.06444,36.57591 -10.10789,43.89228 -16.17234,7.31637 100.06173,35.35266 102.08122,26.81677 2.02113,-8.53366 9.09665,-37.78909 0,-41.44803 -7.65619,-3.07607 -61.12876,-24.2883 -83.29473,-28.74944 -4.1735,-0.83809 -7.2385,-1.08859 -8.67748,-0.5102 z"
       style="stroke-width:3.726" />
    <path
       id="path1753"
       fill="#26231f"
       d="m 334.14924,313.98036 116.23257,43.88483 c 0,0 -14.15135,31.69447 -10.10789,43.88855 4.04345,12.18998 -103.09097,-17.06582 -105.11046,-20.72438 -2.02087,-3.65804 5.0532,-13.4095 5.0532,-13.4095 0,0 -15.1611,-58.51683 -9.09666,-56.08003 l 3.03222,2.43695 z"
       style="stroke-width:3.726" />
    <path
       id="path1755"
       fill="#26231f"
       d="m 162.33593,406.60872 c 0,0 16.17233,59.73151 -1.01161,73.14511 -17.18394,13.4136 148.57425,4.8777 159.69263,-24.38183 11.11727,-29.25991 17.18208,-65.83469 -18.19145,-63.39416 -35.37501,2.43874 -140.48883,14.63274 -140.48883,14.63274 z"
       style="stroke-width:3.726" />
    <path
       id="path1757"
       fill="#26231f"
       d="m 74.402328,651.66774 c 0,0 24.257378,93.87284 1.011609,115.81153 -23.245769,21.93794 214.267353,31.70044 227.408963,20.72215 13.13862,-10.95966 25.26712,-127.99928 7.07381,-138.97235 -18.19294,-10.97269 -235.494382,2.43696 -235.494382,2.43696 z"
       style="stroke-width:3.726" />
    <path
       id="path1759"
       fill="#26231f"
       d="m 68.340126,629.7216 c 0,0 246.609034,-2.43695 253.684714,1.21751 7.07604,3.65811 170.81101,-41.45175 185.96838,-26.81901 24.05394,23.21448 21.2233,120.69632 1.01206,137.75395 -44.49589,37.57671 -172.83051,80.47415 -183.9489,81.69255 -11.11614,1.21579 -257.746046,-9.90967 -264.16967,-25.41877 -3.033336,-7.31265 -0.63111,-37.98285 10.486082,-39.19752 13.238478,-1.45504 209.155288,30.26369 221.343028,18.29056 27.28811,-26.819 17.18208,-112.15633 2.02244,-117.03739 -15.1611,-4.88292 -221.495799,2.70773 -229.432179,-3.66191 -3.030206,-2.43669 -8.083929,-23.16454 3.033337,-26.81714 z"
       style="stroke-width:3.726" />
    <path
       id="path1761"
       fill="#26231f"
       d="m 327.06984,476.09862 c 0,0 -249.645726,26.82273 -258.740892,47.54376 -9.097029,20.72588 -4.041965,101.18698 10.107148,104.84591 14.148739,3.65633 243.576074,2.43711 243.576074,2.43711 0,0 147.5645,-14.62716 150.59374,-26.81901 3.03237,-12.19221 -6.06593,-9.75317 -12.12888,-15.85003 -6.06443,-6.09685 -6.06257,-65.83097 3.03405,-70.7083 9.09479,-4.87398 9.09479,-23.16268 2.02072,-24.38034 -7.07567,-1.2175 -138.46561,-17.06768 -138.46561,-17.06768 z"
       style="stroke-width:3.726" />
    <path
       id="path1763"
       fill="#26231f"
       d="m 91.58664,539.51514 c 0,0 -7.075301,63.39416 3.030244,68.2715 10.105286,4.87361 223.366246,13.41136 225.385736,-2.43886 2.02114,-15.85189 6.06593,-95.09124 -4.04196,-96.30964 -10.10789,-1.22306 -208.20515,18.2887 -224.372269,30.47719 z"
       style="stroke-width:3.726" />
    <path
       id="path1765"
       fill="#26231f"
       d="m 315.95891,509.03646 136.49083,15.27735 c 0,0 0.9619,62.74584 8.03773,63.96424 7.07582,1.2184 -135.43265,19.50822 -140.48883,17.06918 -5.0532,-2.44229 -13.13676,-91.43232 -4.04197,-96.30965 z"
       style="stroke-width:3.726" />
    <path
       id="path1767"
       fill="#26231f"
       d="m 157.28347,389.54364 c 0,0 171.81704,-24.38406 177.88297,-8.53366 6.06593,15.84817 0.002,90.21764 -8.08393,95.09125 -8.08728,4.87547 -168.7878,28.04001 -173.84398,24.38369 -5.05358,-3.65975 -5.05209,-18.28833 0,-23.16604 5.05506,-4.8736 147.43782,-16.87803 154.63645,-21.94129 12.12738,-8.53552 15.16109,-48.76589 5.0532,-52.42482 -10.10603,-3.65629 -150.59374,15.85003 -157.66942,7.31824 -7.0753,-8.53366 -6.06369,-19.50263 2.02173,-20.72588 z"
       style="stroke-width:3.726" />
    <path
       id="path1769"
       fill="#26231f"
       d="m 330.12516,379.81878 c 0,0 116.23257,15.84631 119.26181,31.69671 3.03192,15.8504 -5.0532,76.80404 -13.14011,78.02244 -8.08542,1.21918 -110.16292,-10.97233 -116.22885,-12.19222 -6.06257,-1.21751 16.17233,-90.21018 10.1079,-97.52805 z"
       style="stroke-width:3.726" />
    <path
       id="path1771"
       fill="#26231f"
       d="m 331.13118,311.5212 c 0,0 -225.38574,18.28721 -229.42845,34.13351 -4.043455,15.84817 5.05357,53.64323 11.11689,54.86163 6.06519,1.21792 222.35278,-9.75318 226.39922,-17.06769 4.04345,-7.31451 1.00948,-15.84817 1.00948,-15.84817 0,0 -217.30032,18.28721 -219.32354,8.53403 -2.02009,-9.75169 -2.02009,-18.28907 2.02173,-18.28907 4.04346,0 205.17219,-20.72401 210.22837,-25.59948 5.05469,-4.87585 9.0948,-23.16082 -2.02284,-20.72401 z"
       style="stroke-width:3.726" />
    <path
       id="path1773"
       fill="#26231f"
       d="m 333.14322,332.27502 c 0,0 -206.93459,16.08775 -214.01026,24.62327 -7.0753,8.53552 -0.25851,21.70209 7.82683,25.35618 8.08691,3.6602 213.25761,-14.62493 213.25761,-14.62493 l 99.04826,29.25767 c 0,0 0,-21.94129 4.04346,-23.16268 4.04196,-1.22309 -105.11046,-47.54376 -110.16665,-41.44802 z"
       style="stroke-width:3.726" />
    <path
       id="path1775"
       fill="#26231f"
       d="m 128.82801,296.4309 c 9.09517,0 176.18764,-38.73922 178.63189,-27.05672 2.44012,11.68548 -2.61293,49.47383 -5.64489,49.47383 -3.03065,0 -169.79754,20.72401 -171.82076,15.85003 -1.50296,-3.63062 -1.40988,-6.06928 0.6921,-8.91148 1.15305,-1.56398 3.32736,-1.12741 4.36315,-2.06316 4.04196,-3.65803 1.41156,-17.8412 1.41156,-17.8412 0,0 -5.76487,1.66135 -9.28184,0.25038 -1.23804,-0.49529 -1.19791,-9.70324 1.64927,-9.70324 z"
       style="stroke-width:3.726" />
    <path
       id="path1777"
       fill="#26231f"
       d="m 135.0467,305.44782 c 0,0 162.72188,-28.04039 163.73162,-20.72588 1.0112,7.31824 -6.06444,29.25954 -6.06444,29.25954 l -157.66941,9.75131 c 0,0 3.03006,-17.06396 0,-18.28534 z"
       style="stroke-width:3.726" />
    <path
       id="path1779"
       fill="#26231f"
       d="m 141.11263,215.2041 c 15.86084,-15.75651 119.56734,-20.08128 137.00875,-24.48913 16.55536,12.19929 84.80748,46.57872 88.38072,47.65181 4.04196,1.21922 4.04196,-3.65804 5.0532,-8.53552 1.00948,-4.87771 -81.43918,-51.83984 -81.43918,-51.83984 -4.54013,-3.23264 -7.22062,-4.72457 -10.41864,-6.34389 -20.92634,2.43878 -148.26127,17.63516 -154.75196,27.70691 -7.0753,10.97084 -20.21728,90.21764 13.13713,98.74645 0,0 125.09672,-20.18262 154.55075,-27.265 0.0294,0.15127 0.0545,0.32826 0.0871,0.44771 1.00993,3.65633 72.77251,17.06583 72.77251,17.06583 0,0 4.04308,0 3.0302,-9.75318 -1.00948,-9.75504 -70.74929,-26.82086 -70.74929,-26.82086 -0.88641,-0.64456 -1.64119,-0.53778 -2.29089,0.0335 -19.60882,1.46793 -141.59918,25.3763 -148.30225,21.91 -7.07381,-3.6602 -23.24614,-41.45175 -6.06369,-58.52056 z"
       style="stroke-width:3.726" />
    <path
       id="path1781"
       fill="#26231f"
       d="m 317.83309,842.8488 c 0,0 10.31207,-17.97758 2.29044,-23.50361 -8.01947,-5.52603 -241.746603,-26.26643 -245.185701,-19.34055 -3.436676,6.90726 -43.784226,99.0967 -7.120386,123.96402 36.662717,24.88484 214.256177,75.77939 230.412117,69.27752 6.87521,-2.76301 -5.60353,-45.36777 -5.60353,-45.36777 0,0 -182.49203,-37.11544 -191.33756,-56.67619 -6.872604,-15.19649 -13.747446,-66.33025 3.43806,-66.33025 17.1855,0 210.80963,26.26643 213.10484,17.97758 z"
       style="stroke-width:3.726" />
    <path
       id="path1783"
       fill="#26231f"
       d="m 299.92593,995.16768 c 0,0 244.76467,-92.87055 248.20004,-117.7565 3.43675,-24.86658 -9.16559,-26.26644 -8.01947,-26.26644 8.7248,0 -248.62108,73.25689 -252.06018,99.50283 -3.43835,26.26644 5.00365,44.52197 11.87737,44.52197 z"
       style="stroke-width:3.726" />
    <path
       id="path1785"
       fill="#26231f"
       d="m 317.83681,842.8488 c 0,0 203.93516,-56.67619 206.23038,-67.7275 2.29048,-11.05169 4.58149,-41.46293 -5.73059,-40.08058 -10.31022,1.38145 -199.35218,64.9479 -202.79128,73.25316 -3.43671,8.28886 -8.02133,35.93652 2.29224,34.55529 z"
       style="stroke-width:3.726" />
    <path
       id="path1787"
       fill="#e20415"
       d="m 69.096504,636.72648 c 0,0 -6.047298,9.48043 1.207597,12.18998 7.258248,2.71141 230.982189,-4.06506 237.029489,8.13051 6.04618,12.19743 28.14173,90.50081 -3.62715,120.56218 -31.76937,30.06062 -228.292019,-10.14963 -228.292019,-10.14963 0,0 -5.111326,19.63565 0.936307,22.34334 6.047298,2.70772 234.611312,21.67973 244.284012,16.26473 9.67344,-5.434 32.65168,-115.15948 7.25489,-158.50404 C 316.76901,628.57846 69.092853,636.72723 69.092853,636.72723 Z"
       style="fill:#36831d;fill-opacity:1;stroke-width:3.726" />
    <path
       id="path1789"
       fill="#ae0915"
       d="m 341.19138,643.5078 c 0,0 31.24437,112.9984 -13.30443,161.20166 -44.5488,48.20327 176.90303,-62.86507 179.61183,-71.81865 2.70474,-8.95171 20.20237,-89.04394 -2.77591,-113.42689 -9.45509,-10.03337 -145.39224,30.81775 -163.53041,24.04313 z"
       style="fill:#36831d;fill-opacity:1;stroke-width:3.726" />
    <path
       id="path1791"
       fill="#078cc9"
       d="m 310.96234,818.2572 c 0,0 7.39132,22.16355 -4.95441,20.74543 C 280.53091,839.61566 106.56755,815.7398 96.891129,823.88111 79.538775,838.45089 85.010211,881.4387 91.945787,895.6981 256.67428,972.8903 286.7739,956.42361 286.7739,956.42361 v 21.67974 c 0,0 -198.327533,-58.25974 -206.793005,-69.09122 -8.465844,-10.83074 -9.674931,-92.1179 2.418398,-102.94938 12.093478,-10.849 228.564017,12.1937 228.564017,12.1937 z"
       style="fill:#76b729;fill-opacity:1;stroke-width:3.726"
       sodipodi:nodetypes="cccccccccc" />
    <path
       id="path1793"
       fill="#ee7500"
       d="m 313.38052,485.00376 c 0,0 4.83783,14.90325 -2.4174,16.25542 -7.25638,1.35571 -210.42585,17.61094 -220.098542,32.51457 -9.674931,14.90139 -10.13052,74.69672 0.753722,78.76179 172.81189,15.16224 231.43741,3.87034 231.43741,3.87034 0,0 7.61482,14.13011 -1.03095,14.51464 -8.64432,0.38679 -226.320965,-0.96876 -238.415561,-6.386 -12.093478,-5.41723 -13.304055,-81.27896 -7.256385,-94.8267 6.047298,-13.5455 230.982196,-47.41335 237.029486,-44.70454 z"
       style="fill:#76b729;fill-opacity:1;stroke-width:3.726"
       sodipodi:nodetypes="cccccccccc" />
    <path
       id="path1795"
       fill="#d2650c"
       d="m 323.05694,490.44372 c 0,0 -7.25639,12.18998 0,12.18998 7.25489,0 133.02565,18.96497 136.65105,12.19185 3.6289,-6.77275 1.2102,-13.54774 1.2102,-13.54774 0,0 -136.65477,-16.25542 -137.862,-10.83446 z"
       style="fill:#76b729;fill-opacity:1;stroke-width:3.726" />
    <path
       id="path1797"
       fill="#d2650c"
       d="m 333.92568,616.41978 c 0,0 0.002,18.96497 6.04804,16.25542 6.04618,-2.70768 125.77113,-27.09361 125.77113,-27.09361 l -6.04804,-6.77275 c 0,0 -122.14201,13.54587 -125.77113,17.61094 z"
       style="fill:#76b729;fill-opacity:1;stroke-width:3.726" />
    <path
       id="path1799"
       fill="#007429"
       d="m 336.90648,398.85864 c 0,0 17.47308,63.02156 -9.70996,76.12963 -27.18303,13.10807 93.82068,8.32761 99.86426,1.55456 6.04618,-6.77461 13.86854,-55.93471 13.86854,-55.93471 0,0 -90.72065,-17.68844 -104.02247,-21.75164 z"
       style="fill:#36831d;fill-opacity:1;stroke-width:3.726" />
    <path
       id="path1801"
       fill="#6b1f7c"
       d="m 332.8824,376.98702 c 0,0 1.52282,7.66662 -4.56137,7.66662 -6.08269,0 -208.34302,13.62859 -214.42757,10.22116 -6.08456,-3.40761 -14.447568,-40.88167 -8.36487,-45.99374 6.08269,-5.10984 227.35306,-30.66312 228.11317,-26.40654 0.75947,4.26031 -2.28106,4.26031 -2.28106,4.26031 0,0 -222.03234,24.70077 -221.27223,29.81024 0.75965,5.11356 1.52069,31.51786 6.84391,32.36925 5.32185,0.84912 215.94778,-11.92693 215.94778,-11.92693 z"
       style="fill:#76b729;fill-opacity:1;stroke-width:3.726" />
    <path
       id="path1803"
       fill="#6b1f7c"
       d="m 340.48344,322.47564 1.52103,5.11319 c 0,0 92.76622,39.17889 96.56674,36.62397 3.80201,-2.5529 3.80201,-5.11133 3.80201,-5.11133 0,0 -101.13109,-40.88167 -101.8912,-36.62583 z"
       style="fill:#76b729;fill-opacity:1;stroke-width:3.726" />
    <path
       id="path1805"
       fill="#6b1f7c"
       d="m 340.48344,375.27306 c 0,0 -5.60875,7.01419 -1.28424,8.18938 4.32477,1.18069 92.53148,19.06817 92.53148,19.06817 l -3.04224,-4.25881 c 0,0 -86.68166,-26.40468 -88.20187,-22.99874 z"
       style="fill:#76b729;fill-opacity:1;stroke-width:3.726" />
    <path
       id="path1807"
       fill="#7e7416"
       d="m 307.63502,287.07864 c 0,0 0.95371,20.32794 -5.73058,26.74895 -6.6843,6.42102 76.40908,17.11911 82.13967,17.11911 9.01095,0 2.86425,-23.54198 2.86425,-23.54198 0,0 -76.40909,-23.53491 -79.27438,-20.32608 z"
       style="fill:#36831d;fill-opacity:1;stroke-width:3.726" />
    <path
       id="path1809"
       fill="#7e7416"
       d="m 132.84464,298.8528 c 0,0 143.26842,-12.84054 161.41404,-18.18959 2.77248,-0.81595 -5.73058,-5.34904 -5.73058,-5.34904 z"
       style="fill:#36831d;fill-opacity:1;stroke-width:3.726" />
    <path
       id="path1811"
       fill="#7e7416"
       d="m 136.66751,326.64876 c 0,0 125.11908,-7.48926 124.16523,-4.2808 l -121.29993,10.69995 -2.86481,-6.41915 z"
       style="fill:#36831d;fill-opacity:1;stroke-width:3.726" />
    <path
       id="path1813"
       fill="#c35f10"
       d="m 279.93221,180.06792 c 0,0 0,6.41915 -5.73058,6.41915 -5.73059,0 -121.62782,11.97276 -131.9712,23.10567 -10.343,11.13106 -20.84846,46.43714 1.11914,68.90492 l 148.20165,-20.89317 -1.115,8.05449 c 0,0 -149.33808,25.28129 -154.72588,21.39842 -26.74336,-19.25969 -5.73133,-84.52058 -5.73133,-84.52058 l 149.95287,-22.46815 z"
       style="fill:#76b729;fill-opacity:1;stroke-width:3.726" />
    <path
       id="path1815"
       fill="#c35f10"
       d="m 286.61666,182.229 -1.91073,7.48926 c 0,0 78.32052,46.00492 79.27437,41.72747 0.95546,-4.27893 -76.40535,-53.4979 -77.36293,-49.21673 z"
       style="fill:#76b729;fill-opacity:1;stroke-width:3.726" />
    <path
       id="path1817"
       fill="#c35f10"
       d="m 298.08156,260.32596 c 0,0 -5.2898,5.30284 0.69885,8.53552 5.98694,3.23264 61.38212,16.07098 61.38212,16.07098 0,0 -59.21732,-27.81533 -62.08261,-24.60687 z"
       style="fill:#76b729;fill-opacity:1;stroke-width:3.726" />
    <path
       id="path1819"
       fill="#80827f"
       d="m 142.3981,307.38534 c 0,0 0.95375,9.63171 -0.95717,12.84054 -1.91092,3.20868 135.76799,-2.13667 148.99901,-10.69809 13.23066,-8.5616 5.73245,-16.049 5.73245,-16.049 0,0 -147.08757,9.62798 -153.77202,13.90692 z"
       style="fill:#fefbde;fill-opacity:1;stroke-width:3.726" />
    <path
       id="path1821"
       fill="#38a825"
       d="m 360.49206,420.58122 c 0,0 2.77404,31.07409 -5.54801,41.94731 -8.32206,10.87321 5.54801,4.66011 8.32202,0 2.774,-4.65825 1.38618,-34.18158 -2.77405,-41.94731 z"
       style="stroke-width:3.726" />
    <path
       id="path1823"
       fill="#38a825"
       d="m 370.17966,420.58122 c 0,0 2.77401,31.07409 -5.54801,41.94731 -8.32203,10.87321 5.54801,4.66011 8.32202,0 2.77404,-4.65825 1.38786,-34.18158 -2.77401,-41.94731 z"
       style="stroke-width:3.726" />
    <path
       id="path1825"
       fill="#38a825"
       d="m 384.04038,423.71106 c 0,0 2.77401,31.07409 -5.54801,41.94731 -8.32203,10.87321 5.54801,4.66197 8.32202,0 2.77564,-4.65825 1.38782,-34.17935 -2.77401,-41.94731 z"
       style="stroke-width:3.726" />
    <path
       id="path1827"
       fill="#fefbde"
       d="m 82.398324,661.13178 c 0,0 38.698236,59.60482 12.093478,94.82297 -26.604758,35.21816 170.512938,31.16613 192.280228,17.60908 21.7699,-13.53805 26.54328,-90.84733 12.09423,-109.72697 -7.25639,-9.47336 -216.469426,-2.70769 -216.469426,-2.70769 z"
       style="stroke-width:3.726" />
    <path
       id="path1829"
       fill="#078cc9"
       d="m 323.02713,829.21164 c 0,0 -8.43902,3.94211 -1.1839,3.94211 7.25676,0 197.1203,-54.17232 197.1203,-62.31363 0,-8.12305 -7.30407,-8.43641 -7.30407,-8.43641 0,0 -187.93199,59.7725 -188.63248,66.80718 z"
       style="fill:#76b729;fill-opacity:1;stroke-width:3.726" />
    <path
       id="path1831"
       fill="#078cc9"
       d="m 300.83507,967.4835 c 0,0 -9.22334,13.33573 -3.17853,10.62841 6.04804,-2.70772 236.52648,-95.35951 240.65861,-97.53177 4.12878,-2.19193 6.04618,-18.97205 -1.21021,-16.26474 -7.25675,2.70769 -171.88636,79.21351 -233.55911,91.40871 z"
       style="fill:#76b729;fill-opacity:1;stroke-width:3.726"
       sodipodi:nodetypes="cccccc" />
    <path
       id="path1833"
       fill="#fefbde"
       d="m 308.54417,850.78518 c 0,0 -18.14227,47.41335 -12.09423,90.75418 6.04805,43.34083 -188.35675,-36.96862 -195.1567,-50.32335 -6.79883,-13.35436 -9.217376,-58.03991 1.66526,-60.76734 10.88439,-2.70768 205.58578,20.33539 205.58578,20.33539 z"
       style="stroke-width:3.726" />
    <path
       id="path1835"
       fill="#d9b68b"
       d="m 320.63504,852.12654 c 0,0 -24.18696,33.87344 -15.72186,85.33658 l 215.2622,-75.85391 c 0,0 -33.86226,-37.92695 -25.39753,-67.7275 l -174.14207,58.24483 z"
       style="fill:#e7cfb3;fill-opacity:1;stroke-width:3.726" />
    <path
       id="path1837"
       fill="#e0dcbf"
       d="m 312.17329,510.75042 c 0,0 -12.14862,69.94447 7.83205,94.57706 19.98068,24.63258 -224.30147,5.66575 -227.930594,-3.81617 -3.629236,-9.48267 -6.047671,-55.53976 8.464354,-60.96109 14.51165,-5.41723 211.63307,-29.79943 211.63307,-29.79943 z"
       style="stroke-width:3.726" />
    <path
       id="path1839"
       fill="#b1936c"
       d="m 320.05006,522.45006 c 0,0 -13.92593,62.82036 12.67957,81.7857 39.90919,-10.83819 120.93479,-14.90139 120.93479,-14.90139 0,0 -12.69262,-49.9135 -1.80887,-59.39244 10.88402,-9.48416 -131.80352,-7.48926 -131.80352,-7.48926 z"
       style="fill:#e7cfb3;fill-opacity:1;stroke-width:3.726" />
    <path
       id="path1841"
       fill="#009935"
       d="m 158.58385,399.67836 3.74947,6.94601 c 0,0 152.25554,-4.23833 154.67371,-9.65742 l 2.41739,-5.41723 c 0,0 -159.62929,2.71137 -160.84024,8.12864 z"
       style="fill:#36831d;fill-opacity:1;stroke-width:3.726" />
    <path
       id="path1843"
       fill="#009935"
       d="m 158.58385,485.00376 c 0,0 1.21072,6.77275 7.25675,6.77275 6.0473,0 143.9093,-10.83446 146.32748,-16.25356 2.41739,-5.42095 4.83783,-10.84005 -6.04618,-5.42095 -10.88589,5.42095 -143.9093,8.12864 -147.53843,14.90139 z"
       style="fill:#36831d;fill-opacity:1;stroke-width:3.726" />
    <path
       id="path1845"
       fill="#fefbde"
       d="m 170.68217,414.58236 c 0,0 15.71925,41.99202 3.62745,55.53976 -12.09181,13.54773 134.2366,-1.35556 142.70207,-10.83596 8.46547,-9.48267 13.30145,-51.47841 2.41739,-51.47841 -10.88253,0 -148.74565,6.77647 -148.74565,6.77647 z"
       style="stroke-width:3.726" />
    <path
       id="path1847"
       fill="#fefbde"
       d="m 334.41006,332.68488 c 0,0 -12.16502,25.55179 -3.80052,34.92194 8.3645,9.37014 -206.82281,20.44009 -210.62705,15.33062 -3.80239,-5.10983 -6.84429,-20.43823 -0.7597,-21.29111 6.08121,-0.8547 215.18768,-28.96108 215.18768,-28.96108 z"
       style="stroke-width:3.726" />
    <path
       id="path1849"
       fill="#d9b68b"
       d="m 339.66372,342.93138 c 0,0 -14.38981,6.79883 -3.74426,25.53875 32.6964,10.22116 97.32685,28.1082 97.32685,28.1082 0,0 -3.04049,-17.03267 6.84392,-23.84976 L 339.66335,342.93101 Z"
       style="fill:#e7cfb3;fill-opacity:1;stroke-width:3.726" />
    <path
       id="path1851"
       fill="#f0e7af"
       d="m 278.0245,196.12698 c 0,0 0,40.65811 9.55086,51.35546 9.55085,10.69734 -135.6264,24.6065 -141.35699,19.25597 -5.72947,-5.34719 -11.45894,-41.72375 0.95717,-49.21301 12.41466,-7.48777 130.84967,-21.39805 130.84967,-21.39805 z"
       style="fill:#fefbde;fill-opacity:1;stroke-width:3.726" />
    <path
       id="path1853"
       fill="#b2946d"
       d="m 285.6628,201.49242 c 0,3.20872 -3.81989,34.233 9.55198,47.07428 13.37037,12.84055 62.08261,26.74859 62.08261,26.74859 0,0 -7.64128,-34.23822 2.8647,-38.51567 10.50545,-4.27893 -74.50137,-35.30496 -74.50137,-35.30496 z"
       style="fill:#e7cfb3;fill-opacity:1;stroke-width:3.726" />
    <path
       id="path1855"
       fill="#e20224"
       d="m 227.40307,78.57168 19.10245,100.56847 33.18823,-4.13549 14.56754,5.20559 -3.82138,-82.381857 c 0,0 -58.25974,-24.608739 -63.03647,-19.259694 z"
       style="fill:#36831d;fill-opacity:1;stroke-width:3.726" />
    <path
       id="path1857"
       fill="#e63542"
       d="m 194.93098,76.4106 c 0,0 13.37037,106.99209 19.10096,106.99209 5.73059,0 23.8777,-5.35054 23.8777,-5.35054 0,0 -20.0578,-102.710912 -21.967,-105.918998 -1.90921,-3.208086 -19.10246,-1.072007 -21.01166,4.277075 z"
       style="fill:#36831d;fill-opacity:1;stroke-width:3.726" />
    <path
       id="path1859"
       fill="#e1033c"
       d="m 145.2634,115.9062 c 0,0 40.11411,-36.375075 42.02555,-32.098 l 13.37001,96.29102 -40.11412,7.49112 -15.2807,-71.68451 z"
       style="fill:#36831d;fill-opacity:1;stroke-width:3.726" />
    <path
       id="path1861"
       fill="#fec500"
       d="m 242.68339,106.36764 c -0.40449,3.18107 -1.90909,4.2808 3.82139,5.35091 5.73059,1.07022 35.33887,3.21058 35.33887,3.21058 l 1.90928,-1.07204 c 0,0 -40.11412,-14.977033 -41.06797,-7.48926 z"
       style="fill:#76b729;fill-opacity:1;stroke-width:3.726" />
    <path
       id="path1863"
       fill="#fec500"
       d="m 244.59483,119.22234 c -0.40617,3.17738 -1.91077,4.27894 3.82139,5.34905 5.73058,1.07018 35.33887,3.20875 35.33887,3.20875 l 1.90894,-1.07018 c 0,0 -40.11411,-14.97889 -41.06797,-7.48777 z"
       style="fill:#76b729;fill-opacity:1;stroke-width:3.726" />
    <path
       id="path1865"
       fill="#fec500"
       d="m 244.59483,133.12032 c -0.40617,3.17925 -1.91077,4.28266 3.82139,5.35091 5.73058,1.07018 35.33887,3.20876 35.33887,3.20876 l 1.90894,-1.07019 c 0,0 -40.11411,-14.97889 -41.06797,-7.48963 z"
       style="fill:#76b729;fill-opacity:1;stroke-width:3.726" />
    <path
       id="path1867"
       fill="#fec500"
       d="m 202.56928,101.03946 c 0,0 -4.77525,6.41915 1.90909,7.48963 6.68593,1.07018 13.37187,-4.2808 13.37187,-4.2808 l -3.8199,-6.417289 c 0,0 -9.55197,-3.210545 -11.46118,3.208679 z"
       style="fill:#76b729;fill-opacity:1;stroke-width:3.726" />
    <path
       id="path1869"
       fill="#26231f"
       d="m 262.74418,205.74006 c -0.005,0.55443 -2.92558,0.90441 -7.52615,1.91013 -4.61279,0.95967 -10.88104,2.77401 -17.88257,4.8792 -6.99519,2.10538 -13.50675,3.73569 -18.32633,4.24391 -4.81622,0.5563 -7.82721,0.16022 -7.84211,-0.33347 -0.0212,-0.54709 2.87599,-1.0941 7.45237,-2.30062 4.58596,-1.16046 10.83298,-3.14791 17.8576,-5.26074 7.01643,-2.11454 13.59394,-3.57525 18.43811,-3.87728 4.84753,-0.34987 7.84025,0.25225 7.82908,0.73861 z"
       style="stroke-width:3.726" />
    <path
       id="path1871"
       fill="#26231f"
       d="m 267.51718,222.87966 c -0.0197,1.04071 -8.95209,1.83092 -19.94937,3.18294 -11.004,1.30778 -20.01831,2.16428 -20.16474,1.09596 -0.14141,-0.991 8.66071,-3.52368 19.81449,-4.85349 11.16198,-1.37224 20.32906,-0.4697 20.29962,0.5747 z"
       style="stroke-width:3.726" />
    <path
       id="path1873"
       fill="#26231f"
       d="m 326.7345,348.07326 c 0,0.52682 -4.30167,0.97256 -11.23948,1.41461 -6.9393,0.45316 -16.51102,0.92286 -27.04293,1.79407 -10.53378,0.86022 -20.02167,2.07222 -26.88682,3.09635 -6.86516,1.00572 -11.12733,1.71124 -11.23911,1.18259 -0.10358,-0.48449 3.99092,-2.11644 10.82627,-3.81468 6.82901,-1.71116 16.41079,-3.36342 27.04964,-4.23087 10.63922,-0.88046 20.28993,-0.92651 27.26016,-0.69628 6.9706,0.23772 11.27227,0.73864 11.27227,1.2544 z"
       style="stroke-width:3.726" />
    <path
       id="path1875"
       fill="#26231f"
       d="m 227.40307,424.00914 c -0.006,0.53967 -2.88397,0.9394 -7.47809,1.77197 l -18.02713,3.37814 c -7.08611,1.2636 -13.6379,2.04278 -18.43774,1.86591 -4.81101,-0.11588 -7.71915,-1.17883 -7.63234,-1.66694 0.0803,-0.53971 2.94816,-0.44212 7.54404,-1.00207 4.599,-0.49731 10.93394,-1.6688 18.00105,-2.92871 7.06598,-1.26173 13.56972,-2.17352 18.32819,-2.30244 4.7622,-0.16767 7.71208,0.38497 7.70202,0.88414 z"
       style="stroke-width:3.726" />
    <path
       id="path1877"
       fill="#26231f"
       d="m 194.93098,435.7833 c 0.16211,1.05178 -3.66296,2.52533 -8.36785,3.53292 -4.71004,0.96336 -8.44498,1.6688 -8.82578,0.74598 -0.40781,-0.97994 3.27426,-3.45553 8.17186,-4.45182 4.86914,-1.04258 8.86416,-0.82889 9.02177,0.17326 z"
       style="stroke-width:3.726" />
    <path
       id="path1879"
       fill="#26231f"
       d="m 310.49659,544.91784 c -0.002,0.54891 -4.23422,0.91548 -11.00921,1.81434 -6.78318,0.85102 -16.09483,2.44247 -26.46242,4.1407 -10.36276,1.70383 -19.892,2.76112 -26.81938,2.75925 -6.9326,0.0499 -11.18657,-0.73856 -11.16198,-1.22857 0.0212,-0.55257 4.26068,-0.71282 11.042,-1.43671 6.78952,-0.67783 16.10825,-2.13116 26.4628,-3.83331 10.35306,-1.69458 19.84877,-2.88821 26.76684,-3.065 6.91583,-0.22282 11.18806,0.35359 11.18172,0.84911 z"
       style="stroke-width:3.726" />
    <path
       id="path1881"
       fill="#26231f"
       d="m 305.72359,564.18126 c -0.18742,0.51572 -2.77077,-0.33907 -6.98178,-0.65943 -4.21597,-0.37576 -10.0602,0.0827 -16.59822,1.10331 -6.52981,1.00389 -12.58754,1.90458 -17.03899,1.87146 -4.45444,0.0186 -7.18075,-0.7423 -7.13641,-1.24516 0.0378,-0.53602 2.71648,-0.72944 6.96874,-1.41834 4.26552,-0.63733 10.11273,-1.92854 16.76588,-2.95267 6.6401,-1.04253 12.93779,-1.11254 17.36949,-0.002 4.45295,1.05729 6.83572,2.86794 6.65129,3.30265 z"
       style="stroke-width:3.726" />
    <path
       id="path1883"
       fill="#26231f"
       d="m 314.31574,578.07924 c -0.007,0.53233 -2.13108,0.95967 -5.52826,1.57856 -3.40549,0.5931 -8.10331,1.46804 -13.42963,2.04091 -5.3211,0.57839 -10.28562,0.47522 -13.80445,-0.25411 -3.5321,-0.6981 -5.55286,-1.81989 -5.44294,-2.29693 0.11345,-0.53051 2.26101,-0.35732 5.65346,-0.36291 3.39721,0.0261 8.05896,-0.27982 13.28319,-0.84729 5.21938,-0.55998 10.04194,-1.026 13.56934,-0.94309 3.52879,0.0551 5.706,0.57466 5.69929,1.0849 z"
       style="stroke-width:3.726" />
    <path
       id="path1885"
       fill="#26231f"
       d="m 188.24281,697.9074 c -0.0948,0.5526 -5.4612,-0.25784 -14.167,-0.69997 -8.70655,-0.51575 -20.75643,-0.40524 -34.14916,-0.34987 -13.38603,0.0738 -25.61588,-0.53416 -34.36118,-2.17356 -8.761312,-1.54722 -13.917724,-3.79456 -13.79104,-4.25509 0.131714,-0.5526 5.419467,0.75518 14.08465,1.60251 8.66184,0.9394 20.69421,1.12358 34.06719,1.04992 13.36666,-0.0551 25.56633,0.25783 34.34404,1.45515 8.78665,1.14198 14.06341,2.8919 13.97212,3.3708 z"
       style="stroke-width:3.726" />
    <path
       id="path1887"
       fill="#26231f"
       d="m 166.27431,719.29464 c -0.12221,0.5342 -3.46421,-0.0373 -8.8485,-0.53416 -5.38407,-0.53416 -12.83198,-0.79204 -21.11823,-0.64467 -8.28439,0.12892 -15.83997,0.38683 -21.32688,0.20269 -5.48877,-0.14755 -8.88166,-0.64471 -8.87868,-1.16046 0.003,-0.53416 3.36897,-0.97621 8.80789,-1.51041 5.43549,-0.49731 12.96052,-1.17883 21.35408,-1.30779 8.39021,-0.1658 16.05496,0.53416 21.49082,1.76829 5.44853,1.19727 8.63277,2.70772 8.51913,3.18658 z"
       style="stroke-width:3.726" />
    <path
       id="path1889"
       fill="#26231f"
       d="m 154.81686,748.17114 c -0.0197,0.51579 -3.19575,0.86574 -8.30414,0.5342 -5.10946,-0.31299 -12.09646,-1.45519 -19.68893,-3.02086 -7.59545,-1.56566 -14.41067,-3.03922 -19.37259,-3.97862 -4.95558,-0.97625 -8.053374,-1.54726 -8.030645,-2.08142 0.01602,-0.51575 3.189085,-0.86573 8.298915,-0.57101 5.10798,0.27647 12.10615,1.34464 19.70645,2.91031 l 19.36923,4.08928 c 4.94925,0.99466 8.0422,1.58411 8.02171,2.11827 z"
       style="stroke-width:3.726" />
    <path
       id="path1891"
       fill="#26231f"
       d="m 193.97339,861.59058 c 0.002,-0.51575 6.16169,-0.99466 16.12837,-1.3999 9.96481,-0.3685 23.74952,-0.73677 39.00004,-0.29472 15.24791,0.40524 29.04901,1.80513 38.94415,3.49976 2.65884,0.5526 4.68656,1.28934 6.6334,1.80513 1.90063,0.55257 3.5384,0.95781 4.88367,1.19728 2.69185,0.53419 4.17647,0.27647 4.24726,0.55256 0.0841,0.22095 -1.47992,1.0131 -4.36575,0.92099 -1.43406,-0.0373 -3.16572,-0.23958 -5.14337,-0.58945 -1.94225,-0.31298 -4.27558,-0.93936 -6.53801,-1.23409 -9.89402,-1.0131 -23.58335,-1.9709 -38.7504,-2.37614 l -38.89944,-0.81044 c -9.97003,-0.27647 -16.14141,-0.75523 -16.13954,-1.27098 z"
       style="stroke-width:3.726" />
    <path
       id="path1893"
       fill="#26231f"
       d="m 236.95653,877.64964 c 0.0395,-0.51575 3.39889,-0.68152 8.76765,-0.0373 5.3673,0.58945 12.68293,2.09986 20.64837,3.99725 7.96694,1.89721 15.13464,3.55498 20.36707,4.56808 5.22422,1.04995 8.49788,1.62096 8.47814,2.15512 -0.0164,0.49731 -3.36771,0.88414 -8.7643,0.49731 -5.39525,-0.34987 -12.77832,-1.62093 -20.7732,-3.51813 -7.99636,-1.8972 -15.13948,-3.81282 -20.33725,-5.0655 -5.19143,-1.30779 -8.43082,-2.06301 -8.38611,-2.59717 z"
       style="stroke-width:3.726" />
    <path
       id="path1895"
       fill="#26231f"
       d="m 233.13365,896.91306 c 0.26146,-1.03151 13.14496,2.30244 29.14962,5.43363 7.99972,1.5841 15.26468,2.78138 20.54107,3.55501 5.2734,0.77363 8.56756,1.17883 8.57054,1.71303 0.008,0.49731 -3.33298,1.04991 -8.74641,0.9394 -5.40643,-0.092 -12.85247,-0.86574 -20.94906,-2.48666 -16.21518,-3.16814 -28.82732,-8.1782 -28.56576,-9.15441 z"
       style="stroke-width:3.726" />
    <path
       id="path1897"
       fill="#26231f"
       d="m 413.66208,890.50434 c 0.14643,1.14202 -22.8564,4.95483 -50.56555,12.69113 -27.74342,7.64426 -49.35087,17.18543 -49.71974,16.19096 -0.39134,-0.90259 20.87678,-12.13856 48.90002,-19.8566 27.97854,-7.81007 51.3033,-9.96519 51.38527,-9.02549 z"
       style="stroke-width:3.726" />
    <path
       id="path1899"
       fill="#26231f"
       d="m 477.6375,847.6926 c 0.20083,0.40524 -7.25638,5.52603 -20.24373,11.60425 -12.95754,6.17063 -31.51563,12.82005 -52.30186,18.54878 -20.78289,5.76524 -39.70798,10.18614 -53.32651,13.74111 -13.63493,3.46291 -22.02961,5.83902 -22.16747,5.32334 -0.13153,-0.47905 8.05412,-3.75767 21.58546,-7.92036 13.51495,-4.2182 32.39049,-9.08101 53.09178,-14.80936 20.71246,-5.71009 39.18261,-11.89898 52.2497,-17.36987 13.08571,-5.39673 20.88162,-9.63357 21.11487,-9.11752 z"
       style="stroke-width:3.726" />
    <path
       id="path1901"
       fill="#e20415"
       d="m 364.926,685.0527 c 0,0 9.55197,39.58502 0.95538,64.19153 -8.59659,24.6065 126.07294,-31.01858 131.80353,-43.85875 5.73208,-12.83868 9.55197,-32.08719 0.95546,-38.51566 -8.59514,-6.42847 -125.12281,7.49671 -133.71497,18.18027 z"
       style="fill:#76b729;fill-opacity:1;stroke-width:3.726" />
    <path
       id="path1903"
       fill="#ee7a00"
       d="m 382.66176,694.06962 c 0,0 -9.70996,37.28236 0,37.28236 9.70996,0 19.41842,-7.77319 19.41842,-7.77319 L 400.694,692.5047 c 0,0 -9.70996,-6.20752 -18.03198,1.56567 z"
       style="fill:#36831d;fill-opacity:1;stroke-width:3.726" />
    <path
       id="path1905"
       fill="#ee7a00"
       d="m 417.35082,687.80994 c 0,0 -9.70996,37.30099 0,37.30099 9.70847,0 19.41842,-7.77319 19.41842,-7.77319 l -1.38782,-31.07409 c 0,0 -9.70847,-6.20752 -18.03049,1.54722 z"
       style="fill:#36831d;fill-opacity:1;stroke-width:3.726" />
    <path
       id="path1907"
       fill="#ee7a00"
       d="m 453.4185,678.49494 c 0,0 -9.70847,37.30099 0,37.30099 9.70996,0 19.41842,-7.77319 19.41842,-7.77319 l -1.37862,-31.03758 c 0,0 -9.70995,-6.22577 -18.03198,1.54726 z"
       style="fill:#36831d;fill-opacity:1;stroke-width:3.726" />
    <path
       id="path24476"
       fill="#26231f"
       d="m 416.78719,575.2464 c -0.002,0.54891 -5.24946,0.91548 -13.6489,1.81434 -8.4096,0.85102 -19.95392,2.44247 -32.80737,4.1407 -12.84746,1.70383 -24.66154,2.76112 -33.24992,2.75925 -8.59484,0.0499 -13.86879,-0.73856 -13.8383,-1.22857 0.0263,-0.55257 5.28227,-0.71282 13.68956,-1.43671 8.41745,-0.67783 19.97055,-2.13116 32.80783,-3.83331 12.83544,-1.69458 24.60795,-2.88821 33.18478,-3.065 8.57405,-0.22282 13.87064,0.35359 13.86278,0.84911 z"
       style="stroke-width:4.14872" />
    <path
       id="path24478"
       fill="#26231f"
       d="m 438.99774,544.96252 c -0.0674,0.54476 -3.06766,0.54843 -7.90761,0.86414 -4.83988,0.26753 -11.53506,1.05487 -18.98056,1.85835 -7.4428,0.80945 -14.22531,1.04805 -19.06272,0.45667 -4.84733,-0.54043 -7.72265,-1.68511 -7.64621,-2.16943 0.0816,-0.54671 3.06162,-0.345 7.88482,-0.48649 4.82337,-0.0951 11.50678,-0.7447 18.94364,-1.55318 7.43491,-0.8011 14.2105,-1.17788 19.06303,-0.76465 4.85652,0.36735 7.77026,1.30309 7.70589,1.79444 z"
       style="stroke-width:3.12518" />
    <path
       id="path24480"
       fill="#26231f"
       d="m 212.83843,311.79343 c -0.12221,-0.5342 -3.46421,0.0373 -8.8485,0.53416 -5.38407,0.53416 -12.83198,0.79204 -21.11823,0.64467 -8.28439,-0.12892 -15.83997,-0.38683 -21.32688,-0.20269 -5.48877,0.14755 -8.88166,0.64471 -8.87868,1.16046 0.003,0.53416 3.36897,0.97621 8.80789,1.51041 5.43549,0.49731 12.96052,1.17883 21.35408,1.30779 8.39021,0.1658 16.05496,-0.53416 21.49082,-1.76829 5.44853,-1.19727 8.63277,-2.70772 8.51913,-3.18658 z"
       style="stroke-width:3.726" />
    <path
       id="path24482"
       fill="#26231f"
       d="m 284.56653,305.17801 c -0.18742,0.51572 -2.77077,-0.33907 -6.98178,-0.65943 -4.21597,-0.37576 -10.0602,0.0827 -16.59822,1.10331 -6.52981,1.00389 -12.58754,1.90458 -17.03899,1.87146 -4.45444,0.0186 -7.18075,-0.7423 -7.13641,-1.24516 0.0378,-0.53602 2.71648,-0.72944 6.96874,-1.41834 4.26552,-0.63733 10.11273,-1.92854 16.76588,-2.95267 6.6401,-1.04253 12.93779,-1.11254 17.36949,-0.002 4.45295,1.05729 6.83572,2.86794 6.65129,3.30265 z"
       style="stroke-width:3.726" />
  </g>
</svg>
