<?xml version="1.0" encoding="UTF-8" standalone="no"?>
<!-- Uploaded to: SVG Repo, www.svgrepo.com, Generator: SVG Repo Mixer Tools -->

<svg
   width="800"
   height="800"
   viewBox="0 -30.54 349.272 349.272"
   version="1.1"
   id="svg735"
   sodipodi:docname="header-right.svg"
   inkscape:version="1.2.2 (b0a8486541, 2022-12-01)"
   xmlns:inkscape="http://www.inkscape.org/namespaces/inkscape"
   xmlns:sodipodi="http://sodipodi.sourceforge.net/DTD/sodipodi-0.dtd"
   xmlns="http://www.w3.org/2000/svg"
   xmlns:svg="http://www.w3.org/2000/svg">
  <sodipodi:namedview
     id="namedview737"
     pagecolor="#505050"
     bordercolor="#ffffff"
     borderopacity="1"
     inkscape:showpageshadow="0"
     inkscape:pageopacity="0"
     inkscape:pagecheckerboard="1"
     inkscape:deskcolor="#505050"
     showgrid="false"
     inkscape:zoom="3.0829856"
     inkscape:cx="256.4073"
     inkscape:cy="518.65309"
     inkscape:window-width="1918"
     inkscape:window-height="1055"
     inkscape:window-x="0"
     inkscape:window-y="23"
     inkscape:window-maximized="1"
     inkscape:current-layer="svg735" />
  <defs
     id="defs503">
    <style
       id="style501">.a{fill:#ffffff;}.b{fill:#79c6e0;}.c{fill:#7a7473;}.d{fill:#211715;}.e{fill:#89705d;}.f{fill:#c6c6c6;}.g{fill:#d9d9d9;}.h{fill:#f4b3b3;}.i{fill:#ffda71;}</style>
  </defs>
  <path
     class="a"
     d="m 2,20.854 c 0.087,46.145 0.393,150.121 0.487,193.8 0.019173,10.30992 8.361136,18.66886 18.671,18.709 60.01,0.231 245.985,-0.145 307.4,-0.25 10.34338,-0.0116 18.72018,-8.40362 18.713,-18.747 C 347.249,169.625 347.178,63.156 347.153,20.849 347.14914,10.501325 338.75667,2.1164758 328.409,2.122 264.74,2.114 81.519,2.078 20.748,2.068 10.378448,2.0668701 1.9778735,10.484471 2,20.854 Z"
     id="path505"
     style="fill:#76b729;fill-opacity:0.497989"
     sodipodi:nodetypes="ccccccccc" />
  <path
     id="path2667"
     class="a"
     d="m 238.31181,29.171643 c -0.72382,0.009 -1.46689,0.0935 -2.22815,0.26946 -0.0857,0.0908 -0.19586,0.16439 -0.32573,0.22682 -0.17682,0.0525 -0.35289,0.10678 -0.52698,0.16628 -2.2365,0.49414 -7.54255,-0.40078 -11.82289,4.50404 -4.99447,5.72313 -5.16766,10.32379 -5.29366,10.41079 l -0.21659,0.14838 -0.17395,-0.058 c -2.23756,-0.69491 -4.6619,0.21257 -5.89311,2.20597 -0.0257,0.0505 -0.0506,0.10083 -0.075,0.15179 -1.01776,2.12464 -0.90171,4.62345 0.31806,6.64776 1.34276,2.21535 3.41969,3.8905 5.86924,4.73342 0.0421,0.12351 0.0916,0.24395 0.13558,0.36667 0.0782,0.21928 0.15689,0.43821 0.24132,0.65488 0.0473,0.12071 0.0975,0.24 0.14666,0.35985 0.10754,0.26336 0.2176,0.52535 0.33427,0.7845 0.034,0.0752 0.0701,0.14939 0.10488,0.22426 0.14275,0.30856 0.29041,0.6146 0.44597,0.91667 0.004,0.007 0.007,0.0137 0.0102,0.0205 0.87891,1.70272 1.95469,3.30167 3.21729,4.75559 2.00676,2.38487 2.84991,4.5175 5.72897,5.71156 L 226.681,74.651 c -0.291,1.439 3.22291,-0.707297 2.97491,0.703693 -0.24,1.371 -0.16525,2.59666 -2.07125,3.28466 -0.068,0.02 -0.72076,0.27916 -1.33876,0.52016 0.256,0.969 0.90993,3.43486 1.60992,6.07985 2.98874,2.2047 6.87686,3.31967 10.74592,3.31707 0.0404,5.1e-4 0.0807,5.8e-4 0.12109,8.5e-4 0.0404,-2.7e-4 0.0807,-3.4e-4 0.12108,-8.5e-4 3.86906,0.003 7.75633,-1.11237 10.74506,-3.31707 0.7,-2.64499 1.35393,-5.11085 1.60993,-6.07985 -0.618,-0.241 -1.27076,-0.50016 -1.33876,-0.52016 -1.906,-0.688 -1.83125,-1.91366 -2.07125,-3.28466 -0.248,-1.41099 0.29099,1.439 0,0 L 250.515,74.654 c 2.87906,-1.19406 2.34467,-5.607857 4.35143,-7.992727 1.26613,-1.45799 2.34387,-3.062 3.22411,-4.77009 0.1646,-0.31939 0.32129,-0.64289 0.47155,-0.96954 0.0242,-0.0524 0.0495,-0.10429 0.0733,-0.1569 0.12365,-0.27395 0.2396,-0.55103 0.35303,-0.82969 0.0451,-0.11033 0.0921,-0.21981 0.13558,-0.33085 0.0873,-0.22391 0.16833,-0.45037 0.24899,-0.67706 0.0418,-0.11674 0.0888,-0.2313 0.12876,-0.34876 2.44955,-0.84292 4.52647,-2.51807 5.86924,-4.73342 1.21977,-2.02431 1.33582,-4.52312 0.31806,-6.64776 -0.0244,-0.051 -0.0493,-0.10129 -0.075,-0.15179 -1.23121,-1.9934 -3.65555,-2.90088 -5.89311,-2.20597 l -0.17396,0.058 -0.21573,-0.14838 c -0.126,-0.087 -0.30005,-4.68766 -5.29451,-10.41079 -4.28034,-4.90482 -9.58639,-4.0099 -11.82289,-4.50404 -0.1744,-0.0596 -0.35069,-0.11367 -0.52783,-0.16628 -0.12957,-0.0624 -0.23935,-0.1362 -0.32489,-0.22682 -0.89845,-0.20765 -1.77071,-0.28709 -2.61698,-0.26605 -0.0141,-4.1e-4 -0.0285,3.5e-4 -0.0426,0 -0.12926,-0.003 -0.2592,-0.005 -0.38969,-0.003 z"
     sodipodi:nodetypes="ccccscccccccccccccccccccccccccccccccscccccccsccccsccccccc" />
  <path
     class="b"
     d="m 233.609,192.513 c 0,0 -0.244,-6.585 -0.45,-10.873 6.2,5.637 17.605,5.352 23.629,-0.465 -0.228,4.374 -0.512,11.338 -0.512,11.338 z"
     id="path507" />
  <path
     class="a"
     d="m 280.187,191.008 c -3.272,-5.748 -6.487,-8.372 -9.353,-10.146 a 61.13,61.13 0 0 0 -9.172,-3.992 30.734,30.734 0 0 0 -4.6,-1 l -0.784,15.173"
     id="path509" />
  <path
     class="a"
     d="m 209.76,191.008 c 3.272,-5.748 6.487,-8.372 9.353,-10.146 a 61.13,61.13 0 0 1 9.172,-3.992 30.734,30.734 0 0 1 4.6,-1 l 0.722,15.173"
     id="path511" />
  <path
     class="a"
     d="m 279.9,90.831 a 13.259,13.259 0 0 0 -3.784,-4.268 c -0.76,-0.606 -9.056,-4.8 -16.464,-8.216 L 258.6,76.33 a 21.271,21.271 0 0 0 -4.328,-5.848 43.045,43.045 0 0 1 -12.421,8.656 c -0.257,0.117 -0.544,0.259 -0.626,0.529 a 1,1 0 0 0 0.143,0.7 11.313,11.313 0 0 0 0.915,1.259 c -2.138,0.037 -4.564,0.086 -6.449,0.119 a 12.573,12.573 0 0 0 1.01,-1.378 1,1 0 0 0 0.143,-0.7 c -0.082,-0.27 -0.369,-0.412 -0.626,-0.529 a 43.045,43.045 0 0 1 -12.421,-8.656 22.306,22.306 0 0 0 -4.99,7.221 c -7.724,3.513 -17.062,8.215 -17.87,8.86 a 13.259,13.259 0 0 0 -3.784,4.268 z"
     id="path513" />
  <path
     class="c"
     d="m 260.706,21.948 a 20.2,20.2 0 0 0 -2.259,-2.712 c -5.57,-5.6 -13.851,-8.137 -21.715,-7.383 -6.888,0.66 -13.662,3.158 -18.305,8.288 a 25.5,25.5 0 0 0 -5.382,23.659 5.141,5.141 0 0 1 5.176,-0.607 c 5.122,-3.065 13.25,-6.327 18.847,-9.041 a 1.6,1.6 0 0 1 0.963,-0.234 c 0.815,0.156 0.862,1.3 0.7,2.112 1.77,0.459 3.513,-0.7 4.974,-1.8 l 4.819,-3.628 a 65.157,65.157 0 0 0 6.948,8.882 21.91,21.91 0 0 0 3.666,3.114 l 0.613,0.331 0.058,-0.017 a 5.134,5.134 0 0 1 3.7,0.371 24.628,24.628 0 0 0 -2.803,-21.335 z"
     id="path515" />
  <path
     class="d"
     d="m 251.913,77.111 c 5.429,2.212 10.723,4.791 15.974,7.39 3.766,1.865 8.18,3.434 10.282,7.34 1.221,2.267 4.675,0.25 3.454,-2.019 -2.455,-4.561 -7.06,-6.464 -11.448,-8.641 -5.651,-2.8 -11.355,-5.546 -17.2,-7.927 a 2.013,2.013 0 0 0 -2.46,1.4 2.049,2.049 0 0 0 1.4,2.46 z"
     id="path517" />
  <path
     class="d"
     d="m 224.218,73.254 c -5.844,2.381 -11.548,5.124 -17.2,7.927 -4.388,2.177 -8.993,4.079 -11.448,8.641 -1.22,2.266 2.232,4.289 3.454,2.019 2.1,-3.906 6.516,-5.476 10.282,-7.34 5.252,-2.6 10.546,-5.178 15.975,-7.39 a 2.064,2.064 0 0 0 1.4,-2.46 2.014,2.014 0 0 0 -2.461,-1.4 z"
     id="path519" />
  <path
     class="d"
     d="M 265.645,43.13 A 27.458,27.458 0 0 0 264.045,23.669 25.262,25.262 0 0 0 250.1,11.628 C 238.177,7.107 222.615,10.61 215.042,21.194 a 27.873,27.873 0 0 0 -4.321,21.437 c 0.484,2.526 4.34,1.456 3.857,-1.063 a 23.915,23.915 0 0 1 2.674,-16.427 22.162,22.162 0 0 1 12.609,-9.861 c 10.272,-3.316 23.469,-1.3 29.631,8.446 a 22.912,22.912 0 0 1 2.3,18.341 c -0.683,2.486 3.175,3.546 3.857,1.063 z"
     id="path521" />
  <path
     class="d"
     d="m 260.344,44.841 c 0.178,-0.048 0.352,-0.089 0.533,-0.122 -0.429,0.077 0.132,0.006 0.194,0 0.182,0 0.364,0.007 0.546,0.02 -0.293,-0.021 -0.066,-0.01 0.1,0.026 a 5.451,5.451 0 0 1 0.53,0.142 c 0.137,0.045 0.378,0.153 0.119,0.033 a 5.224,5.224 0 0 1 0.485,0.257 c 0.029,0.017 0.5,0.351 0.2,0.107 a 4.614,4.614 0 0 1 0.407,0.371 c 0.058,0.059 0.38,0.467 0.159,0.159 a 4.313,4.313 0 0 1 0.248,0.392 c 0.05,0.085 0.1,0.173 0.139,0.262 -0.049,-0.137 -0.049,-0.141 0,-0.01 a 5.252,5.252 0 0 1 0.292,1.088 c -0.055,-0.346 0.013,0.284 0.013,0.294 q 0.012,0.315 0,0.63 c 0,0.065 -0.071,0.639 -0.019,0.308 -0.027,0.175 -0.065,0.348 -0.106,0.52 q -0.073,0.31 -0.173,0.613 c -0.025,0.076 -0.157,0.451 -0.062,0.215 a 6.091,6.091 0 0 1 -1.2,1.88 9.786,9.786 0 0 1 -1.553,1.4 11.433,11.433 0 0 1 -1.1,0.677 c -0.187,0.1 -0.378,0.194 -0.571,0.285 -0.348,0.166 0.094,-0.028 -0.294,0.118 a 2.056,2.056 0 0 0 -1.4,2.46 2.015,2.015 0 0 0 2.46,1.4 c 4.294,-1.619 8.079,-5.458 8.031,-10.3 a 7.385,7.385 0 0 0 -2.982,-6.02 7.2,7.2 0 0 0 -6.046,-1.071 2.0004011,2.0004011 0 1 0 1.063,3.857 z"
     id="path523" />
  <path
     class="d"
     d="m 218.231,41.061 a 7.185,7.185 0 0 0 -6.071,0.929 7.431,7.431 0 0 0 -3.116,5.955 c -0.2,4.848 3.543,8.753 7.766,10.5 a 2.012,2.012 0 0 0 2.46,-1.4 2.05,2.05 0 0 0 -1.4,-2.46 c 0.285,0.118 -0.29,-0.145 -0.284,-0.142 q -0.285,-0.142 -0.561,-0.3 a 10.773,10.773 0 0 1 -0.994,-0.647 c -0.108,-0.08 -0.117,-0.085 -0.028,-0.017 -0.085,-0.068 -0.169,-0.137 -0.251,-0.208 -0.139,-0.118 -0.275,-0.238 -0.408,-0.362 -0.318,-0.3 -0.611,-0.615 -0.9,-0.942 a 6.219,6.219 0 0 1 -0.565,-0.8 c -0.091,-0.149 -0.178,-0.3 -0.259,-0.455 q -0.075,-0.138 -0.141,-0.282 c 0.046,0.124 0.044,0.122 0,-0.007 a 7.131,7.131 0 0 1 -0.336,-1.116 c 0,0 -0.1,-0.633 -0.064,-0.306 -0.024,-0.209 -0.035,-0.422 -0.039,-0.632 -0.004,-0.21 0.009,-0.419 0.016,-0.629 0.011,-0.342 -0.017,0 0.021,-0.19 a 5.311,5.311 0 0 1 0.305,-1.086 c -0.129,0.3 0.118,-0.2 0.151,-0.255 0.017,-0.029 0.351,-0.5 0.11,-0.2 a 4.484,4.484 0 0 1 0.376,-0.4 c 0.061,-0.059 0.473,-0.373 0.16,-0.153 q 0.188,-0.132 0.386,-0.247 c 0.056,-0.032 0.524,-0.265 0.335,-0.184 -0.221,0.095 0.231,-0.078 0.276,-0.091 0.175,-0.055 0.354,-0.091 0.532,-0.136 0.506,-0.128 -0.328,-0.015 0.193,-0.022 0.183,0 0.364,0 0.547,0 0.42,0 -0.252,-0.094 0.191,0.018 0.177,0.044 0.353,0.085 0.529,0.139 a 2.0004011,2.0004011 0 1 0 1.063,-3.857 z"
     id="path525" />
  <path
     class="d"
     d="M 257.6,56 A 21.549,21.549 0 0 1 250.279,66.371 18.942,18.942 0 0 1 238.808,69.787 19.57,19.57 0 0 1 227.1,66.3 21.182,21.182 0 0 1 219.843,56.166 c -0.841,-2.416 -4.707,-1.377 -3.857,1.063 2.541,7.3 8.169,13.719 15.848,15.691 7.624,1.958 16.221,0.767 22.242,-4.5 a 26.147,26.147 0 0 0 7.389,-11.352 c 0.826,-2.444 -3.036,-3.493 -3.857,-1.064 z"
     id="path527" />
  <path
     class="d"
     d="m 250.876,47.436 a 3.64,3.64 0 0 1 -1.465,2.946 3.419,3.419 0 0 1 -2.319,0.554 3.477,3.477 0 0 1 -2.005,-6.127 3.534,3.534 0 0 1 4.522,-0.051 3.28,3.28 0 0 1 1.267,2.678 z"
     id="path529" />
  <path
     class="d"
     d="m 233.971,47.436 a 3.643,3.643 0 0 1 -1.465,2.946 3.421,3.421 0 0 1 -2.32,0.554 3.477,3.477 0 0 1 -2,-6.127 3.533,3.533 0 0 1 4.521,-0.051 3.284,3.284 0 0 1 1.264,2.678 z"
     id="path531" />
  <path
     class="d"
     d="m 247.517,32.753 a 70.339,70.339 0 0 0 5.68,7.178 28.328,28.328 0 0 0 2.056,2.131 15.9,15.9 0 0 0 2.879,2.263 2,2 0 1 0 2.019,-3.453 6.519,6.519 0 0 1 -0.559,-0.356 1.589,1.589 0 0 1 -0.311,-0.229 c 0.305,0.372 0.1,0.072 -0.026,-0.029 -0.436,-0.357 -0.858,-0.732 -1.272,-1.115 a 27.939,27.939 0 0 1 -1.957,-2.041 q -1.431,-1.621 -2.787,-3.307 -0.344,-0.428 -0.681,-0.861 c 0.174,0.223 0.015,0.019 -0.07,-0.093 -0.107,-0.14 -0.214,-0.281 -0.319,-0.422 -0.413,-0.552 -0.814,-1.113 -1.2,-1.684 a 2.0001525,2.0001525 0 1 0 -3.454,2.018 z"
     id="path533" />
  <path
     class="d"
     d="m 247.812,28.654 -4.523,3.406 c -1.031,0.777 -2.609,2.316 -4.022,2.046 l 1.4,2.46 c 0.341,-2.18 -0.426,-5 -3.228,-4.608 a 12.335,12.335 0 0 0 -3.214,1.342 c -1.085,0.5 -2.174,1 -3.264,1.488 -4.38,1.973 -8.816,3.877 -13,6.25 -2.239,1.27 -0.225,4.727 2.019,3.454 2.967,-1.683 6.068,-3.117 9.172,-4.526 1.585,-0.719 3.174,-1.427 4.759,-2.144 q 1.082,-0.491 2.159,-0.988 0.514,-0.239 1.027,-0.48 c 0.22,-0.1 0.441,-0.209 0.661,-0.315 q 0.651,-0.258 -0.011,-0.1 l -0.883,-0.515 c -0.233,-0.18 0.047,-0.564 -0.054,0.08 a 2.035,2.035 0 0 0 1.4,2.46 7.545,7.545 0 0 0 6,-1.625 c 1.909,-1.361 3.757,-2.819 5.63,-4.23 a 2.063,2.063 0 0 0 0.718,-2.736 2.015,2.015 0 0 0 -2.737,-0.718 z"
     id="path535" />
  <path
     class="a"
     d="m 249.055,89.89 c 3.988,-3.963 6.6,-8.764 9.547,-13.56 a 21.271,21.271 0 0 0 -4.328,-5.848 43.045,43.045 0 0 1 -12.421,8.656 c -0.257,0.117 -0.544,0.259 -0.626,0.529 a 1,1 0 0 0 0.143,0.7 40.1,40.1 0 0 0 2.569,3.318 c 1.748,2.139 3.942,4.76 5.116,6.205 z"
     id="path537" />
  <path
     class="a"
     d="m 229.161,89.89 c -3.988,-3.963 -6.6,-8.764 -9.547,-13.56 a 21.251,21.251 0 0 1 4.328,-5.848 43.045,43.045 0 0 0 12.421,8.656 c 0.257,0.117 0.544,0.259 0.626,0.529 a 1,1 0 0 1 -0.143,0.7 40.1,40.1 0 0 1 -2.569,3.318 c -1.748,2.139 -3.942,4.76 -5.116,6.205 z"
     id="path539" />
  <path
     class="d"
     d="m 250.469,91.3 a 55.591,55.591 0 0 0 7.819,-10.6 c 0.561,-0.926 1.118,-1.855 1.682,-2.779 a 2.826,2.826 0 0 0 0.6,-1.863 4.965,4.965 0 0 0 -0.777,-1.731 22.783,22.783 0 0 0 -4.1,-5.265 2.035,2.035 0 0 0 -2.829,0 40.3,40.3 0 0 1 -6.65,5.391 c -1.173,0.76 -2.381,1.466 -3.623,2.107 -1.22,0.63 -2.876,1.074 -3.288,2.569 a 3.5,3.5 0 0 0 0.9,3.032 c 0.814,1.08 1.672,2.127 2.528,3.172 1.633,2 3.293,3.966 4.92,5.965 a 2.012,2.012 0 0 0 2.828,0 2.046,2.046 0 0 0 0,-2.828 c -1.358,-1.669 -2.74,-3.317 -4.108,-4.977 -0.771,-0.935 -1.54,-1.871 -2.294,-2.819 -0.214,-0.268 -0.408,-0.509 -0.608,-0.782 a 4.562,4.562 0 0 0 -0.268,-0.38 c -0.187,-0.2 0.068,-0.268 0.036,0.149 l -0.273,1.009 q -0.544,0.445 -0.091,0.189 l 0.289,-0.133 c 0.291,-0.137 0.582,-0.275 0.871,-0.418 q 0.883,-0.438 1.746,-0.919 c 1.185,-0.661 2.338,-1.38 3.456,-2.147 a 45.316,45.316 0 0 0 6.463,-5.352 h -2.829 a 20.221,20.221 0 0 1 4.016,5.443 v -2.012 c -2.806,4.577 -5.417,9.319 -9.234,13.155 -1.828,1.824 0.999,4.657 2.818,2.824 z"
     id="path541" />
  <path
     class="d"
     d="m 230.575,88.476 c -3.817,-3.836 -6.428,-8.578 -9.234,-13.155 v 2.018 a 20.221,20.221 0 0 1 4.016,-5.443 h -2.829 a 45.439,45.439 0 0 0 6.463,5.352 q 1.677,1.152 3.456,2.147 0.79,0.441 1.6,0.847 0.433,0.216 0.871,0.422 0.216,0.1 0.434,0.2 0.453,0.257 -0.091,-0.189 l -0.273,-1.009 c -0.029,-0.377 0.236,-0.369 0.036,-0.149 a 3.535,3.535 0 0 0 -0.216,0.308 c -0.22,0.307 -0.423,0.557 -0.66,0.854 -0.754,0.948 -1.524,1.884 -2.294,2.819 -1.368,1.66 -2.75,3.308 -4.108,4.977 a 2.057,2.057 0 0 0 0,2.828 2.014,2.014 0 0 0 2.828,0 c 1.594,-1.958 3.22,-3.89 4.821,-5.843 0.866,-1.057 1.731,-2.117 2.559,-3.2 a 3.579,3.579 0 0 0 0.963,-3.121 c -0.4,-1.453 -1.954,-1.887 -3.142,-2.494 -1.242,-0.635 -2.452,-1.335 -3.625,-2.089 a 40.323,40.323 0 0 1 -6.794,-5.484 2.037,2.037 0 0 0 -2.829,0 22.71,22.71 0 0 0 -4.02,5.124 7.321,7.321 0 0 0 -0.823,1.606 2.629,2.629 0 0 0 0.561,2.129 c 0.564,0.924 1.121,1.853 1.682,2.779 a 55.591,55.591 0 0 0 7.819,10.6 c 1.819,1.822 4.648,-1.01 2.829,-2.834 z"
     id="path543" />
  <path
     class="e"
     d="m 257.4,176.146 c 4.994,-0.165 6.783,-0.841 10.683,-3.779 2.615,-1.97 4.227,-5.275 4.982,-8.345 a 30.969,30.969 0 0 0 0.516,-9.406 93.467,93.467 0 0 0 -5.885,-28.132 27.126,27.126 0 0 0 -5.143,-8.11 c -3.255,-3.548 -6.989,-5.458 -11.744,-6.858 a 35.768,35.768 0 0 0 -6.528,-0.783 c -3.89,-0.262 -7.513,1 -11.182,2.238 -14.49,4 -15.232,22.542 -15.594,24.764 -0.366,2.243 -0.323,4.527 -0.592,6.781 -0.531,4.44 -2.255,8.668 -3.273,13.031 -1.018,4.363 -0.916,9.318 1.346,13.247 1.721,2.988 6.543,5.352 11.055,5.905 z"
     id="path545" />
  <path
     class="a"
     d="m 261.7,139.168 a 25.059,25.059 0 0 0 -7.582,-8.776 c -3.3,-2.319 -7.409,-4.926 -12.281,-3.8 -1.277,1.353 -14.165,12.373 -17.424,14.9 -0.235,0.182 -0.42,0.321 -0.546,0.408 l -0.216,0.148 -0.174,-0.058 a 5.136,5.136 0 0 0 -5.893,2.206 7.012,7.012 0 0 0 0.243,6.8 11.078,11.078 0 0 0 5.869,4.733 24.148,24.148 0 0 0 4.8,8.248 19.753,19.753 0 0 0 7.619,5.35 c 0.011,0.123 0.022,0.209 0.022,0.209 0,0.476 -0.294,2.9 -0.4,3.468 -0.254,1.369 -0.165,2.6 -2.071,3.286 -0.064,0.023 -0.324,0.109 -0.613,0.205 0.3,1.142 0.983,3.712 1.689,6.379 5.874,3.974 14.882,3.734 20.6,-0.484 0.7,-2.645 1.354,-5.111 1.61,-6.08 -0.618,-0.241 -1.271,-0.5 -1.339,-0.52 -1.906,-0.688 -1.831,-1.914 -2.071,-3.285 -0.248,-1.411 -0.068,-1.661 -0.359,-3.1 0,0 0,-0.06 0,-0.146 a 19.463,19.463 0 0 0 7.436,-5.447 24.125,24.125 0 0 0 4.748,-8.422 29.531,29.531 0 0 0 -3.667,-16.222 z"
     id="path547" />
  <path
     class="d"
     d="m 224.008,140.061 a 7.185,7.185 0 0 0 -6.071,0.929 7.431,7.431 0 0 0 -3.116,5.955 c -0.2,4.848 3.543,8.753 7.766,10.5 a 2.012,2.012 0 0 0 2.46,-1.4 2.051,2.051 0 0 0 -1.4,-2.46 c 0.285,0.118 -0.29,-0.145 -0.284,-0.142 -0.19,-0.095 -0.377,-0.2 -0.561,-0.3 a 10.64,10.64 0 0 1 -0.994,-0.647 c -0.108,-0.08 -0.117,-0.085 -0.028,-0.017 -0.085,-0.068 -0.169,-0.137 -0.252,-0.208 -0.138,-0.118 -0.274,-0.238 -0.407,-0.362 -0.318,-0.3 -0.611,-0.615 -0.9,-0.942 a 6.026,6.026 0 0 1 -0.565,-0.8 c -0.091,-0.149 -0.178,-0.3 -0.259,-0.455 -0.05,-0.093 -0.1,-0.186 -0.141,-0.282 0.046,0.124 0.044,0.122 0,-0.007 a 7.164,7.164 0 0 1 -0.336,-1.116 c 0,0 -0.1,-0.633 -0.064,-0.306 -0.024,-0.209 -0.035,-0.422 -0.039,-0.632 -0.004,-0.21 0.009,-0.419 0.016,-0.629 0.011,-0.342 -0.017,0 0.021,-0.19 a 5.311,5.311 0 0 1 0.3,-1.086 c -0.129,0.3 0.118,-0.2 0.151,-0.255 0.017,-0.029 0.351,-0.5 0.11,-0.2 a 4.622,4.622 0 0 1 0.375,-0.4 c 0.062,-0.06 0.474,-0.373 0.161,-0.153 q 0.188,-0.132 0.386,-0.247 c 0.056,-0.032 0.524,-0.265 0.335,-0.184 -0.221,0.095 0.231,-0.078 0.275,-0.092 0.176,-0.054 0.355,-0.09 0.533,-0.135 0.506,-0.128 -0.329,-0.015 0.193,-0.022 0.183,0 0.364,0 0.547,0 0.42,0 -0.252,-0.094 0.191,0.018 0.177,0.044 0.353,0.085 0.529,0.139 a 2.0004011,2.0004011 0 1 0 1.063,-3.857 z"
     id="path549" />
  <path
     class="d"
     d="m 263.38,155 a 21.553,21.553 0 0 1 -7.321,10.371 18.942,18.942 0 0 1 -11.471,3.416 19.57,19.57 0 0 1 -11.716,-3.487 21.182,21.182 0 0 1 -7.257,-10.134 c -0.841,-2.416 -4.707,-1.377 -3.857,1.063 2.541,7.3 8.168,13.719 15.848,15.691 7.623,1.958 16.221,0.767 22.242,-4.5 a 26.147,26.147 0 0 0 7.389,-11.352 c 0.826,-2.445 -3.036,-3.493 -3.857,-1.064 z"
     id="path551" />
  <path
     class="d"
     d="m 256.653,146.436 a 3.64,3.64 0 0 1 -1.465,2.946 3.419,3.419 0 0 1 -2.319,0.554 3.478,3.478 0 0 1 -2,-6.128 3.535,3.535 0 0 1 4.522,-0.05 3.28,3.28 0 0 1 1.262,2.678 z"
     id="path553" />
  <path
     class="d"
     d="m 239.748,146.436 a 3.645,3.645 0 0 1 -1.466,2.946 3.418,3.418 0 0 1 -2.319,0.554 3.477,3.477 0 0 1 -2,-6.128 3.534,3.534 0 0 1 4.521,-0.05 3.284,3.284 0 0 1 1.264,2.678 z"
     id="path555" />
  <path
     class="d"
     d="m 233.428,184.4 c 7.007,4.881 17.459,4.314 24,-1.109 a 2.015,2.015 0 0 0 0,-2.829 2.044,2.044 0 0 0 -2.828,0 c -5.214,4.327 -13.7,4.277 -19.149,0.484 a 2.017,2.017 0 0 0 -2.736,0.717 2.042,2.042 0 0 0 0.718,2.737 z"
     id="path557" />
  <path
     class="d"
     d="m 281.914,190 c -2.843,-4.932 -6.652,-9.276 -11.831,-11.8 -4,-1.947 -8.511,-4.013 -13.023,-4.325 a 2.029,2.029 0 0 0 -2,2 l -0.784,15.173 c -0.133,2.573 3.867,2.565 4,0 l 0.784,-15.173 -2,2 a 21.489,21.489 0 0 1 4.6,1.095 54.851,54.851 0 0 1 6.408,2.684 c 4.6,2.242 7.864,5.972 10.4,10.364 1.285,2.23 4.743,0.218 3.454,-2.019 z"
     id="path559" />
  <path
     class="d"
     d="m 234.134,169.532 a 18.7,18.7 0 0 1 -0.2,2 c -0.024,0.193 -0.049,0.386 -0.073,0.58 -0.044,0.336 0.085,-0.609 0.021,-0.165 -0.009,0.063 -0.017,0.127 -0.027,0.19 -0.046,0.316 -0.1,0.63 -0.154,0.946 a 7.868,7.868 0 0 1 -0.245,1.1 c -0.092,0.3 0.24,-0.473 0.084,-0.2 -0.051,0.089 -0.1,0.177 -0.153,0.264 -0.169,0.275 0.34,-0.371 0.115,-0.156 -0.081,0.078 -0.169,0.153 -0.248,0.232 0.409,-0.411 0.234,-0.179 0.054,-0.074 a 3.526,3.526 0 0 0 -0.33,0.169 q 0.454,-0.186 0.15,-0.069 l -0.059,0.021 -0.158,0.053 c -0.388,0.13 -0.777,0.257 -1.164,0.389 a 2.000534,2.000534 0 1 0 1.064,3.857 10.526,10.526 0 0 0 2.8,-1.15 4.66,4.66 0 0 0 1.913,-3.138 q 0.222,-1.317 0.387,-2.641 a 19.635,19.635 0 0 0 0.223,-2.216 2,2 0 0 0 -4,0 z"
     id="path561" />
  <path
     class="d"
     d="m 251.248,169.936 c 0.026,0.133 0.051,0.265 0.074,0.4 0.009,0.058 0.017,0.117 0.027,0.176 0.039,0.216 -0.03,-0.282 -0.035,-0.264 a 2.353,2.353 0 0 0 0.051,0.59 c 0.028,0.477 0.063,0.948 0.127,1.423 a 13.453,13.453 0 0 0 0.429,2.42 4.46,4.46 0 0 0 2.142,2.6 18.262,18.262 0 0 0 1.864,0.764 c 0.538,0.209 1.078,0.414 1.612,0.632 a 2,2 0 0 0 1.541,-0.2 2,2 0 0 0 0.718,-2.736 2.342,2.342 0 0 0 -1.2,-0.919 c -0.579,-0.236 -1.164,-0.458 -1.747,-0.685 -0.23,-0.089 -0.46,-0.18 -0.691,-0.267 -0.166,-0.063 -0.275,-0.174 0.117,0.056 -0.093,-0.054 -0.2,-0.094 -0.292,-0.147 -0.058,-0.033 -0.116,-0.068 -0.172,-0.1 -0.169,-0.117 -0.109,-0.068 0.177,0.147 -0.078,-0.082 -0.169,-0.158 -0.25,-0.238 -0.228,-0.223 0.311,0.474 0.072,0.084 a 1.927,1.927 0 0 0 -0.143,-0.275 c 0.065,0.07 0.2,0.532 0.093,0.189 -0.032,-0.1 -0.059,-0.2 -0.082,-0.3 -0.094,-0.4 -0.139,-0.816 -0.206,-1.223 -0.026,-0.155 -0.036,-0.325 -0.077,-0.476 0.158,0.587 0.026,0.176 0.01,0 -0.018,-0.2 -0.028,-0.409 -0.039,-0.613 a 15.125,15.125 0 0 0 -0.267,-2.089 2.013,2.013 0 0 0 -2.46,-1.4 2.05,2.05 0 0 0 -1.4,2.46 z"
     id="path563" />
  <path
     class="d"
     d="m 237.405,122.075 0.018,0.023 -0.313,-0.405 a 12.9,12.9 0 0 1 1.113,1.992 q 0.723,1.451 1.356,2.943 l -0.2,-0.478 c 0.188,0.448 0.37,0.9 0.53,1.357 a 2.124,2.124 0 0 0 0.919,1.195 2,2 0 0 0 2.938,-2.258 39.551,39.551 0 0 0 -1.729,-4.043 17.113,17.113 0 0 0 -1.8,-3.155 2,2 0 0 0 -1.414,-0.585 2.036,2.036 0 0 0 -1.415,0.585 2.011,2.011 0 0 0 -0.585,1.415 2.356,2.356 0 0 0 0.585,1.414 z"
     id="path565" />
  <path
     class="d"
     d="m 240.422,125.172 c -1.868,1.956 -4.068,3.657 -6.114,5.419 -2.954,2.544 -5.922,5.073 -8.928,7.556 -0.589,0.488 -1.181,0.974 -1.778,1.452 -0.167,0.134 -0.974,0.714 -0.317,0.256 -0.146,0.1 -0.283,0.216 -0.429,0.317 a 2.053,2.053 0 0 0 -0.717,2.737 2.016,2.016 0 0 0 2.736,0.717 c 2.393,-1.667 4.588,-3.683 6.813,-5.561 q 4.512,-3.808 8.959,-7.7 c 0.877,-0.771 1.8,-1.523 2.6,-2.368 1.779,-1.862 -1.045,-4.694 -2.828,-2.829 z"
     id="path567" />
  <path
     class="d"
     d="m 242.368,128.515 c 4.105,-0.856 7.912,1.493 11.078,3.847 a 24.8,24.8 0 0 1 7.536,9.864 25.254,25.254 0 0 1 -1.69,24.52 c -1.412,2.161 2.05,4.168 3.454,2.019 a 28.6,28.6 0 0 0 3.777,-22.682 30.54,30.54 0 0 0 -12.905,-18.447 c -3.729,-2.437 -7.839,-3.912 -12.313,-2.978 -2.519,0.525 -1.453,4.382 1.063,3.857 z"
     id="path569" />
  <path
     class="d"
     d="m 232.572,111.042 c -9.424,2.688 -14.4,11.415 -16.186,20.511 -0.3,1.506 -0.509,3.027 -0.686,4.551 -0.05,0.432 -0.114,0.867 -0.146,1.3 -0.025,0.335 0.056,-0.375 0.039,-0.278 -0.049,0.273 -0.082,0.549 -0.12,0.823 -0.155,1.135 -0.24,2.272 -0.31,3.414 a 51.631,51.631 0 0 1 -2.352,11.618 c -1.07,3.63 -2,7.326 -1.738,11.145 0.252,3.671 1.385,7.644 4.259,10.13 a 20.3,20.3 0 0 0 10.714,4.442 2.01,2.01 0 0 0 2,-2 2.052,2.052 0 0 0 -2,-2 15.433,15.433 0 0 1 -8.016,-3.382 c -2.151,-1.929 -2.887,-5.022 -2.989,-7.813 -0.126,-3.426 0.8,-6.652 1.759,-9.905 a 50.651,50.651 0 0 0 2.289,-11.021 c 0.132,-1.957 0.323,-3.893 0.54,-5.84 q 0.077,-0.69 0.161,-1.379 c 0.012,-0.1 0.083,-0.6 0.009,-0.073 0.023,-0.162 0.045,-0.325 0.07,-0.486 0.062,-0.411 0.126,-0.822 0.2,-1.231 a 33.063,33.063 0 0 1 3.215,-9.963 17.041,17.041 0 0 1 10.353,-8.707 c 2.471,-0.7 1.421,-4.565 -1.063,-3.857 z"
     id="path571" />
  <path
     class="d"
     d="m 233.635,114.9 c 3.3,-1.114 6.657,-2.312 10.185,-2.19 a 27.807,27.807 0 0 1 8.2,1.287 22.639,22.639 0 0 1 13.072,11.535 50.384,50.384 0 0 1 3.281,9.3 92.463,92.463 0 0 1 2.2,10.335 c 0.512,3.286 0.851,6.6 1.043,9.924 a 25.859,25.859 0 0 1 -1,10.189 13.107,13.107 0 0 1 -5.661,6.868 14.047,14.047 0 0 1 -7.544,2 c -2.566,0.1 -2.578,4.1 0,4 a 18.934,18.934 0 0 0 8.211,-1.757 17.943,17.943 0 0 0 7.092,-6.275 c 3.978,-6.437 3.169,-14.452 2.321,-21.62 a 88.6,88.6 0 0 0 -5.4,-22.541 26.605,26.605 0 0 0 -13.718,-14.706 27.785,27.785 0 0 0 -5.368,-1.855 38.908,38.908 0 0 0 -5.428,-0.6 c -4.405,-0.285 -8.412,0.858 -12.544,2.255 -2.426,0.821 -1.385,4.686 1.063,3.857 z"
     id="path573" />
  <path
     class="d"
     d="m 211.487,192.017 c 2.532,-4.392 5.793,-8.122 10.4,-10.364 a 56.458,56.458 0 0 1 6.303,-2.653 21.462,21.462 0 0 1 4.7,-1.13 l -2,-2 0.722,15.173 c 0.122,2.563 4.123,2.577 4,0 L 234.89,175.87 a 2.022,2.022 0 0 0 -2,-2 c -4.512,0.312 -9.026,2.378 -13.023,4.325 -5.179,2.523 -8.988,6.868 -11.831,11.8 -1.288,2.234 2.167,4.251 3.454,2.019 z"
     id="path575" />
  <path
     class="f"
     d="m 91.83,129 a 40.62,40.62 0 0 1 9.454,-2.358 c 5.947,-0.541 10.246,-0.209 15.165,2.355 5.32,3.25 7.321,10.2 7.31,12.7 l 1.025,0.267 a 5.135,5.135 0 0 1 3.7,0.373 c 2.806,-9.184 0.644,-18.6 -5.069,-24.445 A 23.163,23.163 0 0 0 119,114.8 c -3.556,-4.631 -11.213,-6 -17.259,-5.413 -6.888,0.671 -13.989,3.072 -18.632,8.289 -5.311,5.968 -7.441,16.316 -5.095,25.189 a 4.994,4.994 0 0 1 6.034,-0.084 c -0.029,-2.7 1.43,-11.8 7.782,-13.781"
     id="path577" />
  <path
     class="h"
     d="m 68.159929,187.52566 c 3.272,-5.748 9.437071,-4.51496 12.304071,-6.28796 2.942696,-1.57948 6.009978,-2.91496 9.171,-3.993 l 0.981,-0.294 c 1.316122,-0.3953 2.741076,-0.15978 3.86,0.638 l 1.062,0.756 c 6.1,4.344 15.808,3.986 21.572,-0.8 v 0 c 1.14666,-0.95104 2.69314,-1.26522 4.12,-0.837 l 1.783,0.534 c 3.16095,1.07822 6.22822,2.41369 9.171,3.993 2.867,1.773 6.59001,2.05597 9.86201,7.80097 z"
     id="path686"
     sodipodi:nodetypes="ccccccssccccc"
     style="fill:#483737" />
  <path
     class="d"
     d="m 69.577,187.312 c 6.123,-2.915 12.319,-5.675 18.47,-8.53 a 2.017,2.017 0 0 0 0.718,-2.736 2.046,2.046 0 0 0 -2.736,-0.718 c -6.151,2.855 -12.347,5.615 -18.47,8.53 a 2.017,2.017 0 0 0 -0.718,2.736 2.043,2.043 0 0 0 2.736,0.718 z"
     id="path579" />
  <path
     class="a"
     d="m 95.266,185.367 c -3.5,-2.945 -5.8,-6.511 -8.385,-10.074 a 16.271,16.271 0 0 1 3.8,-4.344 38.562,38.562 0 0 0 10.909,6.43 c 0.226,0.087 0.478,0.193 0.551,0.393 a 0.65,0.65 0 0 1 -0.126,0.521 30.94,30.94 0 0 1 -2.257,2.464 c -1.533,1.589 -3.458,3.536 -4.492,4.61 z"
     id="path581" />
  <path
     id="path2660"
     class="a"
     d="m 103.92486,125.16244 c -0.72382,0.009 -1.46689,0.0935 -2.22815,0.26946 -0.0857,0.0908 -0.19586,0.16439 -0.32573,0.22682 -0.17682,0.0525 -0.35289,0.10678 -0.52698,0.16628 -2.2365,0.49414 -7.542552,-0.40078 -11.822891,4.50404 -4.994463,5.72313 -5.167654,10.32379 -5.293654,10.41079 l -0.216589,0.14838 -0.173954,-0.058 c -2.237561,-0.69491 -4.661903,0.21257 -5.893112,2.20597 -0.02572,0.0505 -0.05063,0.10083 -0.07504,0.15179 -1.017758,2.12464 -0.901711,4.62345 0.318062,6.64776 1.342765,2.21535 3.419689,3.8905 5.869237,4.73342 0.04205,0.12351 0.09157,0.24395 0.135581,0.36667 0.07822,0.21928 0.156889,0.43821 0.241319,0.65488 0.04727,0.12071 0.09749,0.24 0.146667,0.35985 0.107538,0.26336 0.217594,0.52535 0.334264,0.7845 0.03402,0.0752 0.0701,0.14939 0.104884,0.22426 0.142745,0.30856 0.290411,0.6146 0.44597,0.91667 0.0035,0.007 0.0067,0.0137 0.01023,0.0205 0.87891,1.70272 1.954691,3.30167 3.217293,4.75559 2.00676,2.38487 4.556619,4.25308 7.435674,5.44714 v 0.14581 c -0.291,1.439 -0.110993,1.68948 -0.358993,3.10047 -0.24,1.371 -0.165246,2.59666 -2.071245,3.28466 -0.068,0.02 -0.720762,0.27916 -1.338762,0.52016 0.256,0.969 0.909927,3.43486 1.609926,6.07985 2.988731,2.2047 6.876853,3.31967 10.745913,3.31707 0.0404,5.1e-4 0.0807,5.8e-4 0.12109,8.5e-4 0.0404,-2.7e-4 0.0807,-3.4e-4 0.12108,-8.5e-4 3.86906,0.003 7.75633,-1.11237 10.74506,-3.31707 0.7,-2.64499 1.35393,-5.11085 1.60993,-6.07985 -0.618,-0.241 -1.27076,-0.50016 -1.33876,-0.52016 -1.906,-0.688 -1.83125,-1.91366 -2.07125,-3.28466 -0.248,-1.41099 -0.068,-1.66147 -0.35899,-3.10047 v -0.14581 c 2.87906,-1.19406 5.42977,-3.06227 7.43653,-5.44714 1.26613,-1.45799 2.34387,-3.062 3.22411,-4.77009 0.1646,-0.31939 0.32129,-0.64289 0.47155,-0.96954 0.0242,-0.0524 0.0495,-0.10429 0.0733,-0.1569 0.12365,-0.27395 0.2396,-0.55103 0.35303,-0.82969 0.0451,-0.11033 0.0921,-0.21981 0.13558,-0.33085 0.0873,-0.22391 0.16833,-0.45037 0.24899,-0.67706 0.0418,-0.11674 0.0888,-0.2313 0.12876,-0.34876 2.44955,-0.84292 4.52647,-2.51807 5.86924,-4.73342 1.21977,-2.02431 1.33582,-4.52312 0.31806,-6.64776 -0.0244,-0.051 -0.0493,-0.10129 -0.075,-0.15179 -1.23121,-1.9934 -3.65555,-2.90088 -5.89311,-2.20597 l -0.17396,0.058 -0.21573,-0.14838 c -0.126,-0.087 -0.30005,-4.68766 -5.29451,-10.41079 -4.28034,-4.90482 -9.58639,-4.0099 -11.82289,-4.50404 -0.1744,-0.0596 -0.35069,-0.11367 -0.52783,-0.16628 -0.12957,-0.0624 -0.23935,-0.1362 -0.32489,-0.22682 -0.89845,-0.20765 -1.77071,-0.28709 -2.61698,-0.26605 -0.0141,-4.1e-4 -0.0285,3.5e-4 -0.0426,0 -0.12926,-0.003 -0.2592,-0.005 -0.38969,-0.003 z" />
  <path
     class="d"
     d="m 97.125,183.952 c -3.245,-2.758 -5.594,-6.249 -8.073,-9.668 v 2.016 a 15.129,15.129 0 0 1 3.489,-3.94 h -2.828 a 39.542,39.542 0 0 0 5.718,4.051 q 1.449,0.843 2.964,1.562 0.713,0.337 1.438,0.647 0.477,0.2 0.956,0.4 0.238,0.1 0.478,0.191 0.725,0.324 -0.407,-0.433 l -0.273,-1.01 q 0.289,-0.717 0.131,-0.463 -0.114,0.175 0.182,-0.231 c 0.01,0.049 -0.193,0.226 -0.224,0.262 -0.245,0.279 -0.5,0.55 -0.755,0.821 -0.664,0.706 -1.34,1.4 -2.016,2.094 -1.2,1.233 -2.414,2.456 -3.608,3.7 -1.786,1.856 1.039,4.688 2.828,2.829 1.431,-1.487 2.887,-2.949 4.322,-4.431 1.317,-1.361 4.105,-3.49 2.825,-5.654 -0.63,-1.065 -1.964,-1.318 -3.019,-1.788 -1.055,-0.47 -2.09,-0.988 -3.1,-1.548 a 34.449,34.449 0 0 1 -5.612,-3.825 2.077,2.077 0 0 0 -2.828,0 18.382,18.382 0 0 0 -4.115,4.749 1.959,1.959 0 0 0 0,2.019 c 2.669,3.681 5.2,7.509 8.7,10.478 a 2.053,2.053 0 0 0 2.828,0 2.017,2.017 0 0 0 -0.001,-2.828 z"
     id="path583" />
  <path
     class="a"
     d="m 112.517,185.367 c 3.5,-2.945 5.8,-6.511 8.386,-10.074 a 16.271,16.271 0 0 0 -3.8,-4.344 38.562,38.562 0 0 1 -10.909,6.43 c -0.226,0.087 -0.478,0.193 -0.551,0.393 a 0.65,0.65 0 0 0 0.126,0.521 30.94,30.94 0 0 0 2.257,2.464 c 1.533,1.589 3.461,3.536 4.491,4.61 z"
     id="path585" />
  <path
     class="d"
     d="m 113.376,186.781 c 3.494,-2.969 6.03,-6.8 8.7,-10.478 a 1.959,1.959 0 0 0 0,-2.019 18.382,18.382 0 0 0 -4.115,-4.749 2.075,2.075 0 0 0 -2.828,0 34.27,34.27 0 0 1 -5.5,3.759 q -1.513,0.847 -3.1,1.561 c -1.079,0.485 -2.5,0.755 -3.139,1.841 -1.264,2.137 1.434,4.216 2.739,5.565 1.463,1.512 2.949,3 4.408,4.52 1.788,1.858 4.614,-0.972 2.828,-2.829 -1.194,-1.241 -2.407,-2.464 -3.609,-3.7 -0.676,-0.694 -1.351,-1.388 -2.015,-2.094 -0.236,-0.251 -0.473,-0.5 -0.7,-0.761 a 1.7,1.7 0 0 1 -0.278,-0.322 c 0.136,0.4 0.374,0.032 0.314,0.694 l -0.274,1.01 q -1.131,0.756 -0.406,0.433 c 0.12,-0.046 0.239,-0.094 0.358,-0.142 0.28,-0.114 0.559,-0.231 0.837,-0.349 0.564,-0.239 1.124,-0.485 1.677,-0.748 q 1.514,-0.718 2.964,-1.562 a 39.542,39.542 0 0 0 5.718,-4.051 h -2.828 a 15.145,15.145 0 0 1 3.489,3.94 v -2.019 c -2.479,3.419 -4.828,6.91 -8.073,9.668 a 2.017,2.017 0 0 0 0,2.829 2.042,2.042 0 0 0 2.833,0.003 z"
     id="path587" />
  <path
     class="d"
     d="m 86.094,141.7 c 0.021,-0.236 0.048,-0.472 0.074,-0.707 0.046,-0.41 -0.082,0.51 -0.011,0.091 0.023,-0.135 0.041,-0.27 0.063,-0.405 q 0.142,-0.853 0.349,-1.694 0.217,-0.89 0.51,-1.758 c 0.094,-0.278 0.193,-0.554 0.3,-0.828 0.037,-0.1 0.306,-0.707 0.081,-0.21 0.062,-0.137 0.122,-0.275 0.185,-0.411 a 14.854,14.854 0 0 1 0.941,-1.72 c 0.081,-0.127 0.165,-0.253 0.25,-0.378 0.057,-0.082 0.464,-0.615 0.135,-0.2 0.188,-0.235 0.382,-0.465 0.588,-0.686 a 9.663,9.663 0 0 1 0.757,-0.73 c 0.065,-0.055 0.468,-0.353 0.065,-0.065 0.123,-0.088 0.244,-0.178 0.369,-0.262 a 8.108,8.108 0 0 1 0.924,-0.537 c 0.076,-0.038 0.548,-0.222 0.09,-0.053 0.2,-0.073 0.4,-0.147 0.6,-0.212 a 2.0008831,2.0008831 0 0 0 -1.063,-3.858 c -6.087,1.969 -8.687,8.762 -9.2,14.626 a 2.007,2.007 0 0 0 2,2 2.053,2.053 0 0 0 2,-2 z"
     id="path589" />
  <path
     class="d"
     d="m 115.44,130.726 c 0.329,0.2 0.649,0.419 0.959,0.651 l -0.056,-0.042 0.2,0.167 c 0.157,0.132 0.31,0.266 0.46,0.405 a 16.437,16.437 0 0 1 1.417,1.51 c 0.3,0.357 -0.144,-0.211 0.106,0.132 0.1,0.136 0.2,0.272 0.3,0.41 q 0.311,0.444 0.593,0.907 a 19.057,19.057 0 0 1 0.957,1.774 c 0.067,0.14 0.132,0.282 0.195,0.424 0.034,0.076 0.219,0.562 0.038,0.082 0.1,0.276 0.217,0.547 0.316,0.825 q 0.3,0.826 0.516,1.678 c 0.114,0.447 0.191,0.9 0.281,1.35 0.076,0.379 -0.047,-0.485 -0.017,-0.137 0.008,0.091 0.021,0.183 0.029,0.274 0.016,0.188 0.025,0.375 0.025,0.563 a 2,2 0 0 0 4,0 19.206,19.206 0 0 0 -8.3,-14.427 2.02,2.02 0 0 0 -2.737,0.717 2.042,2.042 0 0 0 0.718,2.737 z"
     id="path591" />
  <path
     class="d"
     d="m 100.621,126.64 a 5.557,5.557 0 0 1 0.323,-1.054 l -0.2,0.478 a 6.371,6.371 0 0 1 0.8,-1.357 l -0.312,0.4 a 7.02,7.02 0 0 1 1.248,-1.242 l -0.405,0.313 a 7.363,7.363 0 0 1 0.9,-0.585 2.0004048,2.0004048 0 0 0 -2.019,-3.454 8.843,8.843 0 0 0 -2.708,2.342 7.545,7.545 0 0 0 -1.477,3.092 2.136,2.136 0 0 0 0.2,1.541 2,2 0 0 0 2.737,0.717 1.985,1.985 0 0 0 0.919,-1.195 z"
     id="path593" />
  <path
     class="d"
     d="m 106.815,128.738 q 0.195,-0.183 0.4,-0.359 l 0.165,-0.138 c 0.06,-0.05 0.324,-0.255 0.051,-0.045 -0.273,0.21 0.014,-0.009 0.057,-0.04 0.043,-0.031 0.117,-0.085 0.176,-0.127 q 0.224,-0.157 0.453,-0.3 a 12.906,12.906 0 0 1 1.852,-0.972 l -0.478,0.2 a 13.127,13.127 0 0 1 3.1,-0.872 2,2 0 0 0 1.195,-0.919 2.039,2.039 0 0 0 0.2,-1.541 2.017,2.017 0 0 0 -0.919,-1.2 2.321,2.321 0 0 0 -1.541,-0.2 14.311,14.311 0 0 0 -7.543,3.683 2.018,2.018 0 0 0 0,2.829 2.044,2.044 0 0 0 2.829,0 z"
     id="path595" />
  <path
     class="d"
     d="m 130.616,142.183 a 28.1,28.1 0 0 0 -1.946,-20.444 19.34,19.34 0 0 0 -6.706,-7.465 8.665,8.665 0 0 1 -1.964,-1.387 12.955,12.955 0 0 0 -1.551,-1.448 16.289,16.289 0 0 0 -3.791,-2.234 c -5.937,-2.534 -12.731,-2.334 -18.9,-0.831 -6.589,1.6 -12.754,5.166 -16.4,11.02 -4.072,6.541 -5.084,14.8 -3.668,22.282 0.478,2.526 4.334,1.456 3.857,-1.064 a 27.8,27.8 0 0 1 2.268,-17.427 c 2.657,-5.243 7.358,-8.634 12.9,-10.37 5.246,-1.642 11.064,-2.2 16.4,-0.652 a 13.473,13.473 0 0 1 6.267,3.8 c 1.043,1.1 2.568,1.637 3.76,2.571 a 13.948,13.948 0 0 1 2.8,3.121 c 3.9,5.7 4.59,12.9 2.815,19.466 -0.672,2.488 3.186,3.55 3.857,1.063 z"
     id="path597" />
  <path
     class="d"
     d="m 125.315,143.894 c 0.178,-0.048 0.353,-0.089 0.534,-0.122 -0.43,0.077 0.131,0.006 0.193,0 0.183,0 0.364,0.007 0.547,0.02 -0.294,-0.021 -0.066,-0.01 0.1,0.026 a 5.376,5.376 0 0 1 0.53,0.142 c 0.137,0.045 0.378,0.153 0.119,0.033 a 5.241,5.241 0 0 1 0.486,0.257 c 0.028,0.017 0.5,0.351 0.2,0.107 a 4.748,4.748 0 0 1 0.406,0.371 c 0.058,0.059 0.38,0.467 0.159,0.159 a 4.553,4.553 0 0 1 0.249,0.392 c 0.049,0.085 0.1,0.173 0.139,0.262 -0.049,-0.137 -0.05,-0.141 0,-0.01 a 5.19,5.19 0 0 1 0.292,1.088 c -0.055,-0.346 0.013,0.284 0.013,0.294 0.009,0.21 0.007,0.42 0,0.63 0,0.065 -0.07,0.639 -0.019,0.308 -0.027,0.175 -0.065,0.348 -0.106,0.52 -0.049,0.207 -0.106,0.411 -0.173,0.613 -0.025,0.076 -0.156,0.451 -0.062,0.215 a 6.072,6.072 0 0 1 -1.205,1.88 9.826,9.826 0 0 1 -1.552,1.4 11.448,11.448 0 0 1 -1.1,0.677 c -0.187,0.1 -0.378,0.194 -0.57,0.285 -0.349,0.166 0.093,-0.028 -0.295,0.118 a 2.056,2.056 0 0 0 -1.4,2.46 2.016,2.016 0 0 0 2.461,1.4 c 4.294,-1.619 8.078,-5.458 8.03,-10.3 a 7.382,7.382 0 0 0 -2.982,-6.02 7.2,7.2 0 0 0 -6.046,-1.071 2.0004011,2.0004011 0 1 0 1.063,3.857 z"
     id="path599" />
  <path
     class="d"
     d="m 83.2,140.114 a 7.185,7.185 0 0 0 -6.071,0.929 7.427,7.427 0 0 0 -3.113,5.957 c -0.2,4.848 3.542,8.753 7.765,10.5 a 2.012,2.012 0 0 0 2.46,-1.4 2.05,2.05 0 0 0 -1.4,-2.46 c 0.285,0.118 -0.29,-0.145 -0.284,-0.142 q -0.285,-0.142 -0.561,-0.3 a 10.773,10.773 0 0 1 -0.994,-0.647 c -0.107,-0.08 -0.117,-0.085 -0.027,-0.017 -0.086,-0.068 -0.17,-0.137 -0.252,-0.208 -0.139,-0.118 -0.275,-0.238 -0.408,-0.362 -0.318,-0.3 -0.611,-0.615 -0.9,-0.942 a 6.219,6.219 0 0 1 -0.565,-0.8 c -0.091,-0.149 -0.178,-0.3 -0.259,-0.455 q -0.074,-0.138 -0.141,-0.282 c 0.046,0.124 0.045,0.122 0,-0.007 a 7.131,7.131 0 0 1 -0.336,-1.116 c 0,0 -0.1,-0.633 -0.064,-0.306 -0.023,-0.209 -0.035,-0.422 -0.039,-0.632 -0.004,-0.21 0.009,-0.419 0.016,-0.629 0.011,-0.342 -0.016,0 0.021,-0.19 a 5.311,5.311 0 0 1 0.3,-1.086 c -0.129,0.3 0.119,-0.2 0.151,-0.255 0.017,-0.029 0.351,-0.5 0.111,-0.2 a 4.473,4.473 0 0 1 0.375,-0.4 c 0.061,-0.059 0.474,-0.373 0.16,-0.153 q 0.188,-0.132 0.386,-0.247 c 0.056,-0.032 0.524,-0.265 0.335,-0.184 -0.221,0.095 0.231,-0.078 0.276,-0.092 0.176,-0.054 0.354,-0.09 0.532,-0.135 0.506,-0.128 -0.328,-0.015 0.193,-0.022 0.183,0 0.364,0 0.547,0 0.42,0 -0.251,-0.094 0.191,0.018 0.177,0.044 0.354,0.085 0.529,0.139 a 2.0004011,2.0004011 0 1 0 1.063,-3.857 z"
     id="path601" />
  <path
     class="d"
     d="m 122.574,155.051 a 21.549,21.549 0 0 1 -7.321,10.371 18.941,18.941 0 0 1 -11.47,3.416 19.571,19.571 0 0 1 -11.717,-3.487 21.182,21.182 0 0 1 -7.257,-10.134 c -0.841,-2.416 -4.706,-1.377 -3.857,1.063 2.541,7.3 8.169,13.719 15.848,15.691 7.624,1.958 16.221,0.767 22.242,-4.5 a 26.138,26.138 0 0 0 7.389,-11.352 c 0.827,-2.444 -3.035,-3.493 -3.857,-1.064 z"
     id="path603" />
  <path
     class="d"
     d="m 115.848,146.489 a 3.645,3.645 0 0 1 -1.466,2.946 3.418,3.418 0 0 1 -2.319,0.554 3.477,3.477 0 0 1 -2,-6.127 3.533,3.533 0 0 1 4.521,-0.051 3.284,3.284 0 0 1 1.264,2.678 z"
     id="path605" />
  <path
     class="d"
     d="m 98.942,146.489 a 3.64,3.64 0 0 1 -1.465,2.946 3.421,3.421 0 0 1 -2.32,0.554 3.477,3.477 0 0 1 -2,-6.127 3.533,3.533 0 0 1 4.521,-0.051 3.281,3.281 0 0 1 1.264,2.678 z"
     id="path607" />
  <path
     class="d"
     d="m 143.97916,187.36737 c -0.007,-0.0126 -0.0131,-0.0252 -0.0196,-0.0377 -0.0955,-0.18315 -0.18023,-0.34957 -0.25667,-0.50149 -0.84612,-1.68171 -0.67041,-1.58582 -2.6584,-2.71601 -1.712,-0.847 -1.58651,-0.86815 -3.33951,-1.62415 -5.3,-2.287 -10.636,-4.516 -15.878,-6.941 -0.95833,-0.52476 -2.15967,-0.20961 -2.737,0.718 -0.548,0.95504 -0.22835,2.17311 0.718,2.736 5.062,2.342 10.208,4.5 15.331,6.7 1.817,0.783 3.646,1.548 5.436,2.391 2.36324,1.43576 2.18899,1.40063 3.09697,0.83592 0.4502,-0.28 0.30721,-1.56057 0.30721,-1.56057 z"
     id="path609"
     sodipodi:nodetypes="csscccccccac" />
  <path
     class="a"
     d="m 133.567,286.109 h -13.739 c -2.925,0 -3.191,-7.759 -2.3,-9.684 0.891,-1.925 2.649,-3.16 5.7,-3.74 10.555,-2.008 13.169,-7.708 14.045,-17.806 0.376,-4.329 0.765,-7.015 0.978,-11.328 0.138,-2.789 0.379,-5.9 0.8,-10.143 23.368,-0.023 47.661,-0.054 71.07,-0.089 0.421,4.285 0.665,7.423 0.8,10.232 0.213,4.313 0.6,7 0.977,11.328 0.876,10.1 3.49,15.8 14.045,17.806 3.047,0.58 4.807,1.816 5.7,3.74 0.893,1.924 1.023,9.706 -1.971,9.706 z"
     id="path613"
     style="fill:#76b729;fill-opacity:1" />
  <path
     class="g"
     d="m 12.811,231.372 a 18.664,18.664 0 0 0 8.347,1.993 c 60.01,0.231 245.985,-0.145 307.4,-0.25 a 18.734,18.734 0 0 0 18.713,-18.747 c 0,-4.783 0,-10.272 -0.012,-16.314 h -0.382 c -5.233,0.3 -317.955,0.595 -344.343,0.595 H 2.452 c 0.012,5.934 0.025,11.318 0.035,16.007 a 18.747,18.747 0 0 0 10.324,16.716 z"
     id="path615"
     style="fill:#76b729;fill-opacity:1" />
  <path
     class="a"
     d="m 142.532,286.111 h -22.7 c -2.925,0 -3.191,-7.759 -2.3,-9.684 0.891,-1.925 2.649,-3.16 5.7,-3.74 a 20.762,20.762 0 0 0 6.992,-2.482 c 23.752,0 65.719,0 88.736,0 a 20.628,20.628 0 0 0 6.987,2.485 c 3.047,0.58 4.807,1.816 5.7,3.74 0.893,1.924 1.023,9.706 -1.971,9.706 z"
     id="path617"
     style="fill:#76b729;fill-opacity:1" />
  <path
     class="d"
     d="m 208.234,234.592 c 0.624,6.6 1.023,13.21 1.617,19.81 0.421,4.668 1.006,9.718 3.852,13.62 a 14.685,14.685 0 0 0 4.942,4.31 31.6,31.6 0 0 0 7.561,2.454 5.914,5.914 0 0 1 2.887,1.423 4.066,4.066 0 0 1 0.814,1.224 c -0.23,-0.526 -0.028,-0.033 -0.007,0.076 0.047,0.245 0.116,0.485 0.159,0.731 a 12.872,12.872 0 0 1 -0.252,5.159 2.849,2.849 0 0 1 -0.346,0.771 c 0.188,-0.347 -0.134,0.112 -0.15,0.14 l 0.135,-0.12 c 0.235,-0.081 0.242,-0.09 0.023,-0.025 0,-0.042 0.321,-0.039 0.028,-0.036 -0.084,0 -0.169,0 -0.253,0 -0.521,-0.02 -1.047,0 -1.568,0 h -5.56 -18.513 l -49.7,-0.011 q -16.729,0 -33.461,-0.006 a 4.073,4.073 0 0 0 -0.615,0 c 0.183,-0.029 0.15,0.136 0.21,0.054 l 0.128,0.113 a 2.361,2.361 0 0 1 -0.254,-0.256 c 0.094,0.148 -0.237,-0.493 -0.276,-0.6 a 9.7,9.7 0 0 1 -0.526,-2.756 c -0.032,-0.515 -0.042,-1.033 -0.026,-1.549 q 0.01,-0.3 0.031,-0.6 c 0.006,-0.082 0.092,-0.769 0.039,-0.444 0.029,-0.181 0.321,-1.161 0.1,-0.636 a 3.951,3.951 0 0 1 0.814,-1.224 6.381,6.381 0 0 1 3.279,-1.514 26.747,26.747 0 0 0 7.41,-2.494 15.889,15.889 0 0 0 7.431,-10.305 50.421,50.421 0 0 0 1.164,-7.956 c 0.3,-3.306 0.69,-6.6 0.869,-9.918 q 0.256,-4.724 0.706,-9.43 a 2.014,2.014 0 0 0 -2,-2 2.043,2.043 0 0 0 -2,2 c -0.638,6.754 -1.046,13.527 -1.659,20.285 -0.378,4.168 -1.032,8.959 -4.067,12.026 a 13.03,13.03 0 0 1 -5.514,3.119 c -2.781,0.858 -5.7,1.008 -8.017,2.969 -3.358,2.842 -3.22,8.671 -1.524,12.4 a 4.286,4.286 0 0 0 3.994,2.718 c 0.6,0.013 1.2,0 1.8,0 h 6.1 19.726 l 50.938,0.011 h 20.429 c 3.458,0 6.945,0.133 10.4,0 4.535,-0.172 4.913,-6.138 4.573,-9.552 a 7.855,7.855 0 0 0 -2.849,-5.768 c -2.36,-1.87 -5.324,-1.988 -8.087,-2.883 a 11.72,11.72 0 0 1 -8.039,-8.023 36.223,36.223 0 0 1 -1.28,-7.5 c -0.3,-3.307 -0.692,-6.6 -0.885,-9.92 -0.193,-3.32 -0.421,-6.6 -0.732,-9.89 a 2.055,2.055 0 0 0 -2,-2 2.014,2.014 0 0 0 -2,2 z"
     id="path619" />
  <path
     class="d"
     d="m 143.14,272.2 h 62.988 c 2.574,0 2.578,-4 0,-4 H 143.14 c -2.574,0 -2.578,4 0,4 z"
     id="path621" />
  <path
     class="d"
     d="m 0,20.854 q 0.051,27.3 0.127,54.609 0.086,33.254 0.173,66.508 0.078,29.52 0.152,59.041 0.015,5.634 0.027,11.268 c 0.011,5.029 0.667,9.768 3.6,14.011 a 20.917,20.917 0 0 0 12.552,8.56 c 3.4,0.751 6.978,0.523 10.444,0.533 q 21.579,0.063 43.156,0.054 28.076,0.006 56.151,-0.021 30.949,-0.025 61.9,-0.069 30.2,-0.042 60.4,-0.093 25.909,-0.043 51.817,-0.09 l 20.184,-0.037 c 3.009,0 6.066,0.14 9.069,-0.055 a 20.892,20.892 0 0 0 13.917,-6.53 21.167,21.167 0 0 0 5.594,-14.466 c 0.012,-3.619 0,-7.239 -0.006,-10.859 q -0.006,-13.243 -0.015,-26.488 -0.018,-32.08 -0.039,-64.162 -0.021,-31.053 -0.04,-62.107 l -0.015,-24.392 c 0,-4.274 0.209,-8.557 -1.377,-12.62 A 20.866,20.866 0 0 0 337.543,2.241 c -4.059,-1.954 -8.2,-2.119 -12.6,-2.119 L 315.5,0.12 H 293.359 L 239.021,0.108 177.192,0.1 115.192,0.089 60.336,0.075 37.8,0.071 h -9.672 c -3.073,0 -6.24,-0.208 -9.3,0.1 A 20.989,20.989 0 0 0 0,20.854 c -0.028,2.575 3.972,2.577 4,0 A 16.985,16.985 0 0 1 10.527,7.528 C 14.2,4.7 18.358,4.068 22.856,4.069 h 18.591 l 48.932,0.009 58.69,0.01 61.9,0.012 57.707,0.01 46.96,0.007 h 9.172 c 4.19,0 8.156,0.047 11.915,2.207 a 16.91,16.91 0 0 1 8.243,11.976 c 0.556,3.521 0.187,7.346 0.189,10.906 q 0.017,27.231 0.034,54.462 0.021,32.289 0.041,64.577 0.016,28 0.033,56.006 c 0,3.683 0.162,7.406 -0.019,11.084 a 16.767,16.767 0 0 1 -6.859,12.588 c -6.022,4.345 -14.037,3.2 -21.069,3.214 q -22.6,0.041 -45.192,0.081 -28.226,0.049 -56.45,0.093 -30.5,0.047 -60.992,0.082 -29.44,0.032 -58.881,0.046 -24.807,0.009 -49.615,-0.015 -9.552,-0.011 -19.1,-0.037 c -3.237,-0.009 -6.674,0.285 -9.833,-0.5 A 16.951,16.951 0 0 1 6.069,221.74 c -1.9,-3.971 -1.581,-8.308 -1.59,-12.583 L 4.452,197.736 Q 4.413,183.867 4.377,170 4.293,137.678 4.205,105.354 4.124,74.675 4.05,44 4.023,32.427 4,20.854 c 0,-2.573 -4,-2.578 -4,0 z"
     id="path623" />
  <path
     class="d"
     d="m 182.1,216.169 c 0,4.065 -3.043,7.052 -7.383,7.052 -4.978,0 -7.545,-3.4 -7.545,-7.055 a 7.155,7.155 0 0 1 7.254,-7.256 7.55,7.55 0 0 1 7.674,7.259 z"
     id="path625" />
  <path
     id="path2665"
     class="a"
     d="m 103.92486,29.774963 c -0.72382,0.009 -1.46689,0.0935 -2.22815,0.26946 -0.0857,0.0908 -0.19586,0.16439 -0.32573,0.22682 -0.17682,0.0525 -0.35289,0.10678 -0.52698,0.16628 -2.2365,0.49414 -7.542552,-0.40078 -11.822891,4.50404 -4.994463,5.72313 -5.167654,10.32379 -5.293654,10.41079 l -0.216589,0.14838 -0.173954,-0.058 c -2.237561,-0.69491 -4.661903,0.21257 -5.893112,2.20597 -0.02572,0.0505 -0.05063,0.10083 -0.07504,0.15179 -1.017758,2.12464 -0.901711,4.62345 0.318062,6.64776 1.342765,2.21535 3.419689,3.8905 5.869237,4.73342 0.04205,0.12351 0.09157,0.24395 0.135581,0.36667 0.07822,0.21928 0.156889,0.43821 0.241319,0.65488 0.04727,0.12071 0.09749,0.24 0.146667,0.35985 0.107538,0.26336 0.217594,0.52535 0.334264,0.7845 0.03402,0.0752 0.0701,0.14939 0.104884,0.22426 0.142745,0.30856 0.290411,0.6146 0.44597,0.91667 0.0035,0.007 0.0067,0.0137 0.01023,0.0205 0.87891,1.70272 1.954691,3.30167 3.217293,4.75559 2.00676,2.38487 4.556619,4.25308 7.435674,5.44714 v 0.14581 c -0.291,1.439 -0.110993,1.68948 -0.358993,3.10047 -0.24,1.371 -0.165246,2.59666 -2.071245,3.28466 -0.068,0.02 -0.720762,0.27916 -1.338762,0.52016 0.256,0.969 0.909927,3.43486 1.609926,6.07985 2.988731,2.2047 6.876853,3.31967 10.745913,3.31707 0.0404,5.1e-4 0.0807,5.8e-4 0.12109,8.5e-4 0.0404,-2.7e-4 0.0807,-3.4e-4 0.12108,-8.5e-4 3.86906,0.003 7.75633,-1.11237 10.74506,-3.31707 0.7,-2.64499 1.35393,-5.11085 1.60993,-6.07985 -0.618,-0.241 -1.27076,-0.50016 -1.33876,-0.52016 -1.906,-0.688 -1.83125,-1.91366 -2.07125,-3.28466 -0.248,-1.41099 -0.068,-1.66147 -0.35899,-3.10047 v -0.14581 c 2.87906,-1.19406 5.42977,-3.06227 7.43653,-5.44714 1.26613,-1.45799 2.34387,-3.062 3.22411,-4.77009 0.1646,-0.31939 0.32129,-0.64289 0.47155,-0.96954 0.0242,-0.0524 0.0495,-0.10429 0.0733,-0.1569 0.12365,-0.27395 0.2396,-0.55103 0.35303,-0.82969 0.0451,-0.11033 0.0921,-0.21981 0.13558,-0.33085 0.0873,-0.22391 0.16833,-0.45037 0.24899,-0.67706 0.0418,-0.11674 0.0888,-0.2313 0.12876,-0.34876 2.44955,-0.84292 4.52647,-2.51807 5.86924,-4.73342 1.21977,-2.02431 1.33582,-4.52312 0.31806,-6.64776 -0.0244,-0.051 -0.0493,-0.10129 -0.075,-0.15179 -1.23121,-1.9934 -3.65555,-2.90088 -5.89311,-2.20597 l -0.17396,0.058 -0.21573,-0.14838 c -0.126,-0.087 -0.30005,-4.68766 -5.29451,-10.41079 -4.28034,-4.90482 -9.58639,-4.0099 -11.82289,-4.50404 -0.1744,-0.0596 -0.35069,-0.11367 -0.52783,-0.16628 -0.12957,-0.0624 -0.23935,-0.1362 -0.32489,-0.22682 -0.89845,-0.20765 -1.77071,-0.28709 -2.61698,-0.26605 -0.0141,-4.1e-4 -0.0285,3.5e-4 -0.0426,0 -0.12926,-0.003 -0.2592,-0.005 -0.38969,-0.003 z" />
  <path
     class="d"
     d="m 94.611,72.056 a 18.7,18.7 0 0 1 -0.2,2 q -0.036,0.291 -0.074,0.58 c -0.043,0.336 0.086,-0.609 0.022,-0.165 -0.009,0.063 -0.017,0.127 -0.027,0.19 -0.047,0.316 -0.1,0.631 -0.154,0.946 a 7.882,7.882 0 0 1 -0.245,1.106 c -0.092,0.3 0.24,-0.474 0.084,-0.2 -0.051,0.089 -0.1,0.176 -0.154,0.264 -0.168,0.275 0.341,-0.372 0.116,-0.157 -0.081,0.078 -0.169,0.153 -0.248,0.232 0.409,-0.41 0.234,-0.178 0.054,-0.074 a 3.533,3.533 0 0 0 -0.33,0.17 q 0.454,-0.186 0.15,-0.069 l -0.06,0.02 c -0.052,0.019 -0.105,0.036 -0.158,0.053 -0.387,0.13 -0.776,0.258 -1.163,0.389 a 2.0018972,2.0018972 0 1 0 1.067,3.859 10.517,10.517 0 0 0 2.8,-1.149 A 4.662,4.662 0 0 0 98,76.913 q 0.222,-1.317 0.387,-2.641 a 19.845,19.845 0 0 0 0.223,-2.216 2,2 0 0 0 -4,0 z"
     id="path627" />
  <path
     class="d"
     d="m 111.725,72.461 c 0.026,0.132 0.051,0.264 0.074,0.4 0.009,0.059 0.017,0.117 0.027,0.176 0.039,0.216 -0.03,-0.282 -0.035,-0.264 a 2.345,2.345 0 0 0 0.051,0.59 c 0.028,0.477 0.063,0.949 0.127,1.423 a 13.478,13.478 0 0 0 0.431,2.414 4.471,4.471 0 0 0 2.143,2.6 18.031,18.031 0 0 0 1.864,0.763 c 0.538,0.21 1.078,0.414 1.612,0.632 a 2,2 0 0 0 1.541,-0.2 2,2 0 0 0 0.718,-2.737 2.347,2.347 0 0 0 -1.2,-0.919 c -0.579,-0.236 -1.164,-0.458 -1.747,-0.684 -0.23,-0.09 -0.46,-0.18 -0.691,-0.268 -0.166,-0.063 -0.275,-0.173 0.117,0.057 -0.093,-0.055 -0.2,-0.094 -0.292,-0.148 -0.058,-0.033 -0.116,-0.068 -0.172,-0.1 q -0.253,-0.175 0.177,0.146 c -0.078,-0.082 -0.169,-0.158 -0.25,-0.237 -0.229,-0.223 0.311,0.473 0.072,0.083 a 1.915,1.915 0 0 0 -0.143,-0.274 c 0.065,0.069 0.2,0.531 0.092,0.189 -0.031,-0.1 -0.058,-0.2 -0.082,-0.3 -0.093,-0.4 -0.138,-0.815 -0.2,-1.223 -0.026,-0.155 -0.036,-0.325 -0.077,-0.476 0.158,0.588 0.026,0.177 0.01,0 -0.018,-0.2 -0.028,-0.409 -0.039,-0.614 a 15.3,15.3 0 0 0 -0.267,-2.089 2.014,2.014 0 0 0 -2.461,-1.4 2.051,2.051 0 0 0 -1.4,2.461 z"
     id="path629" />
  <path
     class="h"
     d="m 71.11,93.532 c 3.272,-5.748 6.487,-8.372 9.354,-10.145 a 61.082,61.082 0 0 1 9.171,-3.993 L 90.616,79.1 a 4.446,4.446 0 0 1 3.86,0.638 l 1.062,0.756 c 6.1,4.344 15.808,3.986 21.572,-0.8 v 0 a 4.45,4.45 0 0 1 4.12,-0.837 l 1.783,0.534 a 61.126,61.126 0 0 1 9.171,3.993 c 2.867,1.773 6.081,4.4 9.353,10.145 z"
     id="path631" />
  <path
     class="e"
     d="m 79.158,36.642 a 26.448,26.448 0 0 0 0.87,8.44 5.192,5.192 0 0 1 4.653,-0.818 l 2.53,0.828 0.478,-0.327 A 121.5,121.5 0 0 0 102.3,33.045 c -0.318,2.242 -1.448,6.055 -0.024,5.663 5.946,-1.564 11.645,-4.72 15.088,-9.643 a 50.976,50.976 0 0 0 2.8,8.55 27.282,27.282 0 0 0 5.36,7.191 4.89,4.89 0 0 1 4.966,-0.247 c 2.81,-9.035 0.649,-18.3 -5.066,-24.048 -5.57,-5.6 -13.851,-8.137 -21.715,-7.383 -6.888,0.66 -13.662,3.157 -18.3,8.288 a 24.923,24.923 0 0 0 -6.251,15.226 z"
     id="path633" />
  <path
     class="e"
     d="m 78.167,56.539 a 10.051,10.051 0 0 1 0.427,-1.417 c 0,0 0.237,-0.619 0.6,-1.587 A 11.108,11.108 0 0 0 84.9,58 a 24.132,24.132 0 0 0 4.8,8.248 21.244,21.244 0 0 0 1.849,1.84 c 3.541,7.975 -14.086,7.665 -13.176,5.343 1.74,-0.986 2.136,-3.39 1.665,-5.333 -0.471,-1.943 -1.348,-3.866 -1.754,-5.823 a 13.465,13.465 0 0 1 -0.117,-5.736 z"
     id="path635" />
  <path
     class="d"
     d="m 76.665,54.591 c -1.368,3.7 -0.636,7.663 0.6,11.291 a 26.854,26.854 0 0 1 0.871,2.865 4.48,4.48 0 0 1 0,1.727 2.526,2.526 0 0 1 -0.57,1.1 c -0.525,0.448 -0.942,0.656 -1.139,1.374 a 2.4,2.4 0 0 0 -0.015,1.217 c 0.48,1.993 2.892,2.4 4.6,2.591 a 19.2,19.2 0 0 0 6.8,-0.489 c 2.56,-0.652 5.009,-2.006 5.961,-4.6 a 2.017,2.017 0 0 0 -1.4,-2.46 2.042,2.042 0 0 0 -2.46,1.4 c -0.14,0.381 0.221,-0.27 -0.017,0.019 -0.032,0.038 -0.339,0.513 -0.144,0.252 0.195,-0.261 -0.113,0.12 -0.161,0.166 -0.1,0.1 -0.209,0.195 -0.314,0.291 -0.105,0.096 -0.072,0.065 0.117,-0.085 -0.08,0.059 -0.163,0.116 -0.246,0.171 -0.132,0.079 -0.26,0.164 -0.394,0.239 -0.134,0.075 -0.28,0.148 -0.421,0.22 -0.092,0.047 -0.544,0.229 -0.12,0.061 a 12.7,12.7 0 0 1 -1.983,0.592 c -0.349,0.076 -0.7,0.137 -1.055,0.192 -0.483,0.075 0.265,-0.024 -0.179,0.021 -0.207,0.021 -0.413,0.042 -0.621,0.058 a 19.287,19.287 0 0 1 -2.137,0.046 c -0.314,-0.012 -0.625,-0.037 -0.938,-0.061 -0.129,-0.01 -0.6,-0.079 -0.046,0 -0.135,-0.02 -0.269,-0.04 -0.4,-0.064 -0.241,-0.044 -0.482,-0.094 -0.718,-0.161 a 2.391,2.391 0 0 0 -0.308,-0.1 c -0.358,-0.046 0.414,0.2 0.126,0.059 a 1.1,1.1 0 0 1 -0.216,-0.118 c -0.247,-0.207 0.39,0.343 0.186,0.142 a 1.655,1.655 0 0 1 0.374,1.406 l -0.92,1.195 c 3.405,-2.1 3.114,-6.21 2.013,-9.532 -1.101,-3.322 -2.117,-6.6 -0.87,-9.971 a 2.018,2.018 0 0 0 -1.4,-2.46 2.043,2.043 0 0 0 -2.461,1.4 z"
     id="path637" />
  <path
     class="d"
     d="m 115.521,29.957 a 50.191,50.191 0 0 0 2.7,8.2 27.153,27.153 0 0 0 4.807,7 2,2 0 0 0 2.828,-2.828 24.237,24.237 0 0 1 -4.181,-6.194 c -0.017,-0.037 -0.154,-0.354 -0.065,-0.144 0.1,0.242 -0.107,-0.272 -0.1,-0.261 -0.109,-0.278 -0.213,-0.558 -0.314,-0.839 -0.225,-0.625 -0.435,-1.257 -0.636,-1.89 q -0.647,-2.04 -1.177,-4.113 a 2.0004011,2.0004011 0 1 0 -3.857,1.063 z"
     id="path639" />
  <path
     class="d"
     d="m 115.7,27.978 a 20.355,20.355 0 0 1 -6.237,5.619 27.174,27.174 0 0 1 -3.765,1.885 c -0.673,0.272 -1.359,0.516 -2.049,0.741 q -0.564,0.183 -1.135,0.347 l -0.381,0.107 q -0.894,0.2 0.275,0.072 l 0.882,0.514 c 0.05,0.043 0.411,0.629 0.3,0.719 a 5.511,5.511 0 0 0 0,-0.58 8.89,8.89 0 0 1 0.141,-1.063 c 0.162,-0.922 0.362,-1.837 0.5,-2.763 0.284,-1.875 -1.793,-3.45 -3.343,-1.945 a 108.679,108.679 0 0 1 -14.21,11.408 c -2.108,1.448 -0.11,4.916 2.019,3.453 a 114.809,114.809 0 0 0 15.02,-12.033 l -3.343,-1.946 c -0.3,1.983 -1.224,4.365 -0.655,6.362 0.856,3 4.339,1.476 6.3,0.749 A 27.358,27.358 0 0 0 119.148,30 c 1.49,-2.106 -1.977,-4.107 -3.453,-2.019 z"
     id="path641" />
  <path
     class="d"
     d="M 132.627,44.405 A 27.463,27.463 0 0 0 131.027,24.944 25.258,25.258 0 0 0 117.079,12.9 C 105.156,8.379 89.594,11.882 82.021,22.466 A 27.877,27.877 0 0 0 77.7,43.906 c 0.484,2.525 4.34,1.456 3.857,-1.064 A 23.919,23.919 0 0 1 84.232,26.416 22.166,22.166 0 0 1 96.84,16.554 c 10.272,-3.316 23.47,-1.295 29.632,8.447 a 22.919,22.919 0 0 1 2.3,18.341 c -0.683,2.485 3.175,3.546 3.857,1.063 z"
     id="path643" />
  <path
     class="d"
     d="m 127.326,46.116 c 0.177,-0.048 0.352,-0.09 0.533,-0.122 -0.429,0.077 0.131,0.006 0.193,0.005 0.183,0 0.365,0.006 0.547,0.02 -0.293,-0.022 -0.066,-0.011 0.1,0.025 a 5.307,5.307 0 0 1 0.53,0.143 c 0.137,0.045 0.379,0.153 0.12,0.033 a 5,5 0 0 1 0.485,0.257 c 0.029,0.017 0.5,0.351 0.195,0.107 a 4.454,4.454 0 0 1 0.406,0.37 c 0.059,0.06 0.381,0.468 0.16,0.159 a 4.456,4.456 0 0 1 0.248,0.392 c 0.05,0.086 0.1,0.173 0.139,0.263 -0.049,-0.138 -0.049,-0.141 0,-0.01 a 5.24,5.24 0 0 1 0.291,1.087 c -0.054,-0.346 0.013,0.285 0.014,0.3 0.008,0.21 0.006,0.42 0,0.629 0,0.066 -0.07,0.64 -0.019,0.309 -0.027,0.174 -0.064,0.348 -0.105,0.52 q -0.073,0.309 -0.173,0.613 c -0.025,0.076 -0.157,0.451 -0.062,0.214 a 6.062,6.062 0 0 1 -1.206,1.88 9.745,9.745 0 0 1 -1.552,1.405 11.433,11.433 0 0 1 -1.1,0.677 c -0.188,0.1 -0.379,0.194 -0.571,0.285 -0.348,0.166 0.094,-0.028 -0.294,0.118 a 2.056,2.056 0 0 0 -1.4,2.46 2.015,2.015 0 0 0 2.46,1.4 c 4.294,-1.62 8.078,-5.458 8.031,-10.3 a 7.387,7.387 0 0 0 -2.982,-6.019 7.191,7.191 0 0 0 -6.046,-1.071 2.0004011,2.0004011 0 0 0 1.063,3.857 z"
     id="path645" />
  <path
     class="d"
     d="m 85.213,42.335 a 7.189,7.189 0 0 0 -6.071,0.93 7.425,7.425 0 0 0 -3.116,5.955 c -0.2,4.848 3.543,8.753 7.765,10.5 a 2.013,2.013 0 0 0 2.461,-1.4 2.052,2.052 0 0 0 -1.4,-2.46 c 0.285,0.118 -0.29,-0.145 -0.284,-0.142 -0.19,-0.095 -0.377,-0.2 -0.561,-0.3 A 10.846,10.846 0 0 1 83.013,54.771 C 82.905,54.691 82.896,54.685 82.985,54.754 82.9,54.686 82.816,54.617 82.733,54.545 Q 82.526,54.37 82.326,54.184 c -0.319,-0.3 -0.611,-0.616 -0.9,-0.942 a 6.2,6.2 0 0 1 -0.564,-0.8 c -0.091,-0.149 -0.178,-0.3 -0.259,-0.455 q -0.075,-0.139 -0.141,-0.282 c 0.046,0.124 0.044,0.121 0,-0.008 a 7,7 0 0 1 -0.336,-1.116 c 0,0 -0.1,-0.633 -0.064,-0.3 -0.024,-0.209 -0.035,-0.422 -0.04,-0.632 -0.005,-0.21 0.01,-0.419 0.017,-0.629 0.011,-0.342 -0.017,0 0.02,-0.19 a 5.314,5.314 0 0 1 0.306,-1.086 c -0.13,0.3 0.118,-0.2 0.15,-0.256 0.017,-0.028 0.351,-0.5 0.111,-0.2 a 4.22,4.22 0 0 1 0.375,-0.4 c 0.062,-0.06 0.474,-0.373 0.161,-0.153 q 0.188,-0.132 0.385,-0.247 c 0.057,-0.033 0.525,-0.265 0.335,-0.184 -0.22,0.1 0.231,-0.078 0.276,-0.092 0.176,-0.054 0.355,-0.09 0.532,-0.135 0.507,-0.129 -0.328,-0.015 0.194,-0.023 0.182,0 0.364,0 0.547,0 0.419,0 -0.252,-0.094 0.191,0.017 0.177,0.045 0.353,0.086 0.529,0.139 a 2.0004011,2.0004011 0 1 0 1.063,-3.857 z"
     id="path647" />
  <path
     class="d"
     d="m 124.585,57.273 a 21.562,21.562 0 0 1 -7.322,10.371 18.945,18.945 0 0 1 -11.47,3.416 19.582,19.582 0 0 1 -11.717,-3.487 21.192,21.192 0 0 1 -7.257,-10.135 c -0.84,-2.416 -4.706,-1.377 -3.857,1.064 2.538,7.298 8.169,13.719 15.848,15.691 7.624,1.958 16.222,0.767 22.243,-4.5 a 26.159,26.159 0 0 0 7.389,-11.353 c 0.826,-2.444 -3.036,-3.493 -3.857,-1.063 z"
     id="path649" />
  <path
     class="d"
     d="m 117.858,48.711 a 3.64,3.64 0 0 1 -1.465,2.946 3.42,3.42 0 0 1 -2.32,0.554 3.477,3.477 0 0 1 -2,-6.128 3.535,3.535 0 0 1 4.521,-0.051 3.283,3.283 0 0 1 1.264,2.679 z"
     id="path651" />
  <path
     class="d"
     d="m 100.952,48.711 a 3.64,3.64 0 0 1 -1.465,2.946 3.419,3.419 0 0 1 -2.319,0.554 3.478,3.478 0 0 1 -2.005,-6.128 3.536,3.536 0 0 1 4.522,-0.051 3.281,3.281 0 0 1 1.267,2.679 z"
     id="path653" />
  <path
     class="d"
     d="m 74.834,91.389 a 22.969,22.969 0 0 1 6.385,-6.116 38.469,38.469 0 0 1 6.143,-2.918 c 1.429,-0.575 3.948,-1.917 5.5,-1.253 a 12.739,12.739 0 0 1 1.946,1.316 17.973,17.973 0 0 0 4.227,2.049 21.215,21.215 0 0 0 16.787,-1.478 c 1.165,-0.65 2.242,-1.754 3.2,-2.143 a 4.075,4.075 0 0 1 2.784,0.276 47.211,47.211 0 0 1 5.4,2.041 26.784,26.784 0 0 1 6.228,3.525 27.558,27.558 0 0 1 6.374,7.853 c 1.286,2.23 4.744,0.218 3.454,-2.019 -2.889,-5.009 -6.753,-9.357 -12.022,-11.891 a 62.439,62.439 0 0 0 -7.254,-3.022 c -2.286,-0.764 -4.553,-1.378 -6.871,-0.273 -1.237,0.59 -2.25,1.623 -3.464,2.282 a 15.763,15.763 0 0 1 -3.99,1.476 17.5,17.5 0 0 1 -8.716,-0.22 A 14.355,14.355 0 0 1 96.974,79.059 15.414,15.414 0 0 0 94.3,77.4 c -2.4,-0.963 -4.762,-0.156 -7.037,0.718 a 48.79,48.79 0 0 0 -7.812,3.543 27.741,27.741 0 0 0 -8.074,7.71 2.017,2.017 0 0 0 0.717,2.737 2.046,2.046 0 0 0 2.737,-0.718 z"
     id="path655" />
  <path
     class="d"
     d="m 98.289,185.26 a 14.708,14.708 0 0 0 5.094,1.208 13.435,13.435 0 0 0 6.629,-1.059 2.007,2.007 0 0 0 0.717,-2.737 2.059,2.059 0 0 0 -2.736,-0.717 c 0.186,-0.083 0.105,-0.039 -0.036,0.012 -0.141,0.051 -0.281,0.1 -0.424,0.147 -0.221,0.07 -0.445,0.13 -0.672,0.182 a 4.621,4.621 0 0 1 -0.746,0.138 c 0.168,-0.009 0.267,-0.031 0.038,-0.013 -0.136,0.011 -0.272,0.024 -0.408,0.034 a 15.143,15.143 0 0 1 -2.362,0.013 c -0.14,-0.012 -0.281,-0.038 -0.421,-0.047 0.156,0.01 0.456,0.068 0.124,0.014 l -0.244,-0.039 c -0.359,-0.059 -0.718,-0.127 -1.074,-0.2 -0.356,-0.073 -0.715,-0.164 -1.067,-0.267 -0.135,-0.039 -0.268,-0.083 -0.4,-0.127 -0.473,-0.153 0.389,0.2 0.009,0.01 a 2,2 0 0 0 -2.019,3.453 z"
     id="path657" />
  <path
     class="d"
     d="m 2.232,200.649 q 7.649,0 15.3,-0.008 14.255,-0.009 28.508,-0.023 19.1,-0.017 38.192,-0.037 22.407,-0.022 44.812,-0.049 23.882,-0.027 47.761,-0.059 23.77,-0.032 47.542,-0.068 22,-0.035 44,-0.076 18.564,-0.034 37.13,-0.081 13.506,-0.034 27.014,-0.086 c 4.453,-0.018 8.908,-0.007 13.361,-0.087 0.4,-0.008 0.793,-0.021 1.19,-0.021 2.574,0 2.578,-4 0,-4 -3.3,0 -6.607,0.07 -9.91,0.087 q -12,0.061 -24,0.087 -17.472,0.048 -34.946,0.082 -21.4,0.043 -42.8,0.077 -23.5,0.039 -46.994,0.07 -24.006,0.033 -48.011,0.062 l -45.706,0.051 q -20.037,0.021 -40.074,0.04 -15.606,0.015 -31.213,0.027 -9.393,0.007 -18.784,0.012 H 2.232 c -2.574,0 -2.578,4 0,4 z"
     id="path711" />
  <path
     class="d"
     d="m 14.052,103.652 q 22.311,-0.009 44.622,-0.024 l 64.276,-0.04 q 36.064,-0.021 72.129,-0.045 34.519,-0.024 69.039,-0.043 32.438,-0.018 64.874,-0.039 h 5.759 c 2.574,0 2.578,-4 0,-4 q -30.951,0.012 -61.9,0.035 -34.453,0.023 -68.906,0.043 l -72.343,0.046 -65.631,0.04 Q 42.045,99.64 18.116,99.652 h -4.062 c -2.573,0 -2.578,4 0,4 z"
     id="path713" />
  <path
     class="d"
     d="m 176.847,186.5 q -0.052,-30.153 -0.131,-60.306 -0.086,-37.032 -0.172,-74.065 -0.047,-19.031 -0.09,-38.062 c 0,-2.573 -4,-2.578 -4,0 q 0.079,35.231 0.166,70.459 0.084,35.931 0.165,71.862 0.033,15.055 0.062,30.112 c 0,2.573 4,2.578 4,0 z"
     id="path715" />
</svg>
