<?xml version="1.0" encoding="UTF-8" standalone="no"?>
<!-- Created with Inkscape (http://www.inkscape.org/) -->

<svg
   width="473.564"
   height="199.504"
   viewBox="0 0 125.29714 52.785432"
   version="1.1"
   id="svg1895"
   inkscape:version="1.2.2 (b0a8486541, 2022-12-01)"
   sodipodi:docname="logo.svg"
   xmlns:inkscape="http://www.inkscape.org/namespaces/inkscape"
   xmlns:sodipodi="http://sodipodi.sourceforge.net/DTD/sodipodi-0.dtd"
   xmlns="http://www.w3.org/2000/svg"
   xmlns:svg="http://www.w3.org/2000/svg">
  <sodipodi:namedview
     id="namedview1897"
     pagecolor="#505050"
     bordercolor="#ffffff"
     borderopacity="1"
     inkscape:showpageshadow="0"
     inkscape:pageopacity="0"
     inkscape:pagecheckerboard="1"
     inkscape:deskcolor="#505050"
     inkscape:document-units="px"
     showgrid="false"
     inkscape:zoom="0.79909512"
     inkscape:cx="621.95349"
     inkscape:cy="95.107576"
     inkscape:window-width="1918"
     inkscape:window-height="1055"
     inkscape:window-x="0"
     inkscape:window-y="23"
     inkscape:window-maximized="1"
     inkscape:current-layer="layer1" />
  <defs
     id="defs1892" />
  <g
     inkscape:label="Layer 1"
     inkscape:groupmode="layer"
     id="layer1">
    <g
       aria-label="ings"
       id="text2459"
       style="font-size:10.3645px;font-family:Poppins;-inkscape-font-specification:Poppins;display:inline;fill:#ffffff;stroke-width:0.472233;stroke-linecap:round"
       transform="matrix(2.2336323,0,0,2.2336323,-130.58048,-201.57827)" />
    <g
       id="g8791"
       transform="translate(0,2.9484844e-5)">
      <text
         xml:space="preserve"
         style="font-size:7.22763px;font-family:Poppins;-inkscape-font-specification:Poppins;text-align:start;text-anchor:start;display:inline;fill:#ffffff;stroke-width:0.329311;stroke-linecap:round"
         x="52.281979"
         y="36.829174"
         id="text2513"><tspan
           sodipodi:role="line"
           id="tspan2511"
           style="font-style:normal;font-variant:normal;font-weight:normal;font-stretch:normal;font-family:Poppins;-inkscape-font-specification:Poppins;text-align:start;text-anchor:start;fill:#000000;stroke-width:0.329311"
           x="52.281979"
           y="36.829174">Ingenieure geben </tspan><tspan
           sodipodi:role="line"
           style="font-style:normal;font-variant:normal;font-weight:normal;font-stretch:normal;font-family:Poppins;-inkscape-font-specification:Poppins;text-align:start;text-anchor:start;fill:#000000;stroke-width:0.329311"
           x="52.281979"
           y="45.863712"
           id="tspan4668">Schülern Nachhilfe </tspan></text>
      <path
         id="path4451"
         style="display:inline;fill:#000000;stroke-width:0.308483"
         d="m 97.002203,6.237503 -3.41159,-0.86954 c -1.8763,-0.478418 -6.77985,-1.751019 -10.89663,-2.828029 -10.2073,-2.670413 -10.09791,-2.643027 -10.02729,-2.477738 0.0342,0.08052 2.85489,0.969819 6.26845,1.975771 3.41359,1.005954 7.26748,2.152978 8.56457,2.548752 1.29709,0.395731 2.69443,0.808665 3.10544,0.918084 0.41099,0.109421 2.00205,0.598942 3.53497,1.087446 l 2.78729,0.887317 7.718767,5.94748 c 4.24526,3.27072 9.36387,7.18147 11.3756,8.69169 2.01175,1.51021 3.70028,2.84583 3.75208,2.96711 0.0518,0.12151 -0.281,0.0724 -0.73929,-0.1085 -1.07534,-0.42474 -11.83218,-4.1445 -19.977557,-6.90958 l -6.35765,-2.15775 -5.82876,-3.73614 c -3.72972,-2.39059 -5.59743,-3.729861 -5.18806,-3.720102 0.9588,0.02294 9.4124,1.991832 11.93543,2.779882 1.23223,0.38493 2.22938,0.55142 2.25961,0.37727 0.0857,-0.49244 -1.00752,-1.00179 -3.14875,-1.46561 -1.08796,-0.23573 -3.95508,-1.041635 -6.37131,-1.791842 -2.41623,-0.750183 -5.53847,-1.632952 -6.93757,-1.960874 -2.25403,-0.528111 -2.81584,-0.774266 -4.92995,-2.165669 -3.28194,-2.160079 -3.56306,-2.010395 -0.39685,0.211235 l 2.58437,1.813981 -0.40812,1.536931 c -0.22458,0.845528 -0.70599,2.319428 -1.07094,3.274488 -0.36497,0.95509 -0.80208,2.35628 -0.97229,3.11371 -0.24166,1.07631 0.10043,0.48647 1.56402,-2.70229 1.02985,-2.244129 1.95759,-4.118011 2.06246,-4.163608 0.19159,-0.08368 4.69456,2.795048 4.82753,3.086308 0.039,0.0856 -1.06429,0.61599 -2.45159,1.17854 l -2.52143,1.02287 2.51945,-0.68336 c 1.38583,-0.37602 2.86719,-0.63799 3.29282,-0.58233 0.43762,0.0573 2.35569,1.1928 4.41289,2.61359 3.57904,2.47195 3.73961,2.55221 9.84938,4.87987 l 6.210267,2.36613 0.50904,1.8702 c 0.46196,1.69696 0.99699,5.89782 0.76418,5.99929 -0.0527,0.023 -2.243,-1.09117 -4.86744,-2.4762 -2.624407,-1.38507 -5.576597,-2.92535 -6.560847,-3.42209 -0.98432,-0.49671 -3.80835,-1.94145 -6.27592,-3.21075 -2.26332,-1.16421 -4.20618,-2.10435 -4.58198,-2.22244 l 23.683537,13.598 c -0.0703,-2.8245 -0.31228,-5.81428 -0.67737,-7.52478 -0.22735,-1.06515 -0.36456,-1.95391 -0.30567,-1.97569 0.0588,-0.0224 4.34435,1.46082 9.52383,3.29493 5.17943,1.8341 9.53764,3.31406 9.68387,3.28899 0.635,-0.10874 0.51354,-0.88317 -0.2338,-1.49385 -1.17663,-0.96145 -8.94534,-6.79053 -18.93899,-14.21102 z m -14.02852,11.491313 c -0.0308,-0.0108 -0.0554,-0.0138 -0.0621,-0.0125 -0.005,0.001 0.0108,0.0194 0.0431,0.0446 z" />
      <text
         xml:space="preserve"
         style="font-size:23.1505px;font-family:Poppins;-inkscape-font-specification:Poppins;text-align:start;text-anchor:start;display:inline;fill:#000000;stroke-width:1.05479;stroke-linecap:round"
         x="-1.5974486"
         y="26.772058"
         id="text4512"><tspan
           sodipodi:role="line"
           id="tspan4510"
           style="font-style:normal;font-variant:normal;font-weight:normal;font-stretch:normal;font-family:Poppins;-inkscape-font-specification:Poppins;text-align:start;text-anchor:start;fill:#000000;stroke-width:1.05479"
           x="-1.5974486"
           y="26.772058">mentor</tspan></text>
      <text
         xml:space="preserve"
         style="font-size:23.1505px;font-family:Poppins;-inkscape-font-specification:Poppins;text-align:start;text-anchor:start;display:inline;fill:#76b729;fill-opacity:1;stroke-width:1.05479;stroke-linecap:round"
         x="-1.2501929"
         y="46.465305"
         id="text7205"><tspan
           sodipodi:role="line"
           id="tspan7203"
           style="font-style:normal;font-variant:normal;font-weight:600;font-stretch:normal;font-family:Poppins;-inkscape-font-specification:'Poppins Semi-Bold';text-align:start;text-anchor:start;fill:#76b729;fill-opacity:1;stroke-width:1.05479"
           x="-1.2501929"
           y="46.465305">ings</tspan></text>
    </g>
    <g
       id="g2766"
       transform="matrix(1.8095179,0,0,1.8095179,52.335396,-240.11086)" />
    <text
       xml:space="preserve"
       style="font-size:16.7705px;font-family:Poppins;-inkscape-font-specification:Poppins;text-align:start;text-anchor:start;display:inline;fill:#ffffff;stroke-width:0.764104;stroke-linecap:round"
       x="130.53017"
       y="29.779888"
       id="text2459-3"><tspan
         sodipodi:role="line"
         id="tspan2457"
         style="text-align:start;text-anchor:start;fill:#ffffff;stroke-width:0.764104"
         x="130.53017"
         y="29.779888"><tspan
           style="font-style:normal;font-variant:normal;font-weight:normal;font-stretch:normal;font-family:Poppins;-inkscape-font-specification:Poppins;fill:#000000;fill-opacity:1;stroke-width:0.764104"
           id="tspan2571">mentor</tspan><tspan
           style="font-style:normal;font-variant:normal;font-weight:600;font-stretch:normal;font-family:Poppins;-inkscape-font-specification:'Poppins Semi-Bold';fill:#ffffff;fill-opacity:1;stroke-width:0.764104"
           id="tspan2569">ings</tspan></tspan></text>
    <text
       xml:space="preserve"
       style="font-size:5.23577px;font-family:Poppins;-inkscape-font-specification:Poppins;text-align:start;text-anchor:start;display:inline;fill:#ffffff;stroke-width:0.238556;stroke-linecap:round"
       x="131.45285"
       y="40.456974"
       id="text2513-6"><tspan
         sodipodi:role="line"
         id="tspan2511-7"
         style="font-style:normal;font-variant:normal;font-weight:normal;font-stretch:normal;font-family:Poppins;-inkscape-font-specification:Poppins;text-align:start;text-anchor:start;fill:#000000;stroke-width:0.238556"
         x="131.45285"
         y="40.456974">Ingenieure geben Schülern Nachhilfe </tspan></text>
    <rect
       style="display:inline;fill:#1a1a1a;stroke-width:0.468814;stroke-linecap:round"
       id="rect2573"
       width="75.51841"
       height="0.73663992"
       x="131.87181"
       y="32.728004"
       ry="0.36831996" />
    <rect
       style="display:inline;fill:#1a1a1a;stroke-width:0.163943;stroke-linecap:round"
       id="rect2575"
       width="9.2348652"
       height="0.73663992"
       x="217.77585"
       y="32.728004"
       ry="0.36831996" />
    <path
       id="path8781"
       style="display:inline;fill:#000000;stroke-width:0.272736"
       d="m 239.99853,13.029106 -3.01626,-0.768779 c -1.65887,-0.422979 -5.9942,-1.54811 -9.63393,-2.5003173 -9.02448,-2.3609662 -8.92776,-2.3367539 -8.86533,-2.1906172 0.0302,0.071185 2.52408,0.8574366 5.54206,1.7468176 3.01804,0.8893849 6.42533,1.9034919 7.57212,2.2534039 1.14678,0.349874 2.38219,0.714957 2.74559,0.811696 0.36336,0.09673 1.77004,0.529538 3.12533,0.961434 l 2.46429,0.784496 6.82433,5.258287 c 3.75332,2.891709 8.27878,6.349283 10.05739,7.684499 1.77863,1.335207 3.2715,2.516056 3.3173,2.623282 0.0458,0.107427 -0.24844,0.06401 -0.65363,-0.09593 -0.95073,-0.375521 -10.46106,-3.664237 -17.66255,-6.108899 l -5.62094,-1.907712 -5.15333,-3.303196 c -3.29752,-2.113569 -4.94879,-3.297646 -4.58686,-3.289019 0.84769,0.02027 8.32169,1.76102 10.55236,2.457752 1.08943,0.340324 1.97103,0.487521 1.99777,0.333552 0.0758,-0.435377 -0.89078,-0.885704 -2.78388,-1.295777 -0.96189,-0.208414 -3.49677,-0.92093 -5.63301,-1.584203 -2.13622,-0.663252 -4.89666,-1.443726 -6.13365,-1.733648 -1.99283,-0.466915 -2.48953,-0.684544 -4.35866,-1.914713 -2.90164,-1.9097696 -3.15017,-1.7774304 -0.35087,0.186758 l 2.28491,1.603776 -0.36083,1.358832 c -0.19856,0.747549 -0.62418,2.050655 -0.94685,2.895041 -0.32267,0.844416 -0.70914,2.083236 -0.85962,2.752895 -0.21365,0.951588 0.0888,0.430099 1.38278,-2.389149 0.91052,-1.984081 1.73074,-3.640818 1.82346,-3.68113 0.1694,-0.07399 4.15057,2.471159 4.26812,2.728668 0.0344,0.07569 -0.94095,0.544608 -2.1675,1.041971 l -2.22925,0.90434 2.22749,-0.604173 c 1.22525,-0.332446 2.53495,-0.564059 2.91125,-0.514849 0.38691,0.05066 2.08273,1.054578 3.90154,2.310726 3.16431,2.185503 3.30626,2.256462 8.70804,4.314392 l 5.49062,2.091944 0.45006,1.653483 c 0.40842,1.500317 0.88144,5.214382 0.67562,5.304094 -0.0465,0.02033 -1.98308,-0.964726 -4.30341,-2.18926 -2.32029,-1.224568 -4.93037,-2.58636 -5.80058,-3.025537 -0.87026,-0.439152 -3.36704,-1.716476 -5.54866,-2.83869 -2.00104,-1.029302 -3.71876,-1.860499 -4.05103,-1.964905 l 20.93911,12.022268 c -0.0621,-2.497199 -0.27609,-5.140523 -0.59889,-6.65281 -0.20099,-0.941721 -0.3223,-1.727492 -0.27023,-1.746748 0.052,-0.0198 3.84092,1.291541 8.4202,2.913114 4.57925,1.621566 8.43242,2.930028 8.56171,2.907863 0.5614,-0.09615 0.45403,-0.780829 -0.2067,-1.320743 -1.04029,-0.850038 -7.90876,-6.003645 -16.74436,-12.564252 z m -12.4029,10.159704 c -0.0273,-0.0095 -0.0489,-0.01227 -0.0549,-0.01099 -0.004,8.83e-4 0.009,0.01722 0.0381,0.03943 z" />
  </g>
</svg>
