<?xml version="1.0" encoding="UTF-8" standalone="no"?>
<!-- Created with Inkscape (http://www.inkscape.org/) -->

<svg
   width="690"
   height="290"
   viewBox="0 0 182.5625 76.729166"
   version="1.1"
   id="svg2596"
   inkscape:version="1.2.2 (b0a8486541, 2022-12-01)"
   sodipodi:docname="logo-white.svg"
   xmlns:inkscape="http://www.inkscape.org/namespaces/inkscape"
   xmlns:sodipodi="http://sodipodi.sourceforge.net/DTD/sodipodi-0.dtd"
   xmlns="http://www.w3.org/2000/svg"
   xmlns:svg="http://www.w3.org/2000/svg">
  <sodipodi:namedview
     id="namedview2598"
     pagecolor="#505050"
     bordercolor="#ffffff"
     borderopacity="1"
     inkscape:showpageshadow="0"
     inkscape:pageopacity="0"
     inkscape:pagecheckerboard="1"
     inkscape:deskcolor="#505050"
     inkscape:document-units="mm"
     showgrid="false"
     inkscape:zoom="1.5981902"
     inkscape:cx="346.32924"
     inkscape:cy="225.8805"
     inkscape:window-width="1918"
     inkscape:window-height="1055"
     inkscape:window-x="0"
     inkscape:window-y="23"
     inkscape:window-maximized="1"
     inkscape:current-layer="g2958" />
  <defs
     id="defs2593" />
  <g
     inkscape:label="Layer 1"
     inkscape:groupmode="layer"
     id="layer1">
    <g
       id="g2958"
       transform="translate(-8.8034394,-113.52087)">
      <g
         id="g2766"
         transform="matrix(2.784572,0,0,2.784572,-112.41463,-256.86118)" />
      <text
         xml:space="preserve"
         style="font-size:25.8072px;font-family:Poppins;-inkscape-font-specification:Poppins;text-align:start;text-anchor:start;display:inline;fill:#ffffff;stroke-width:1.17584;stroke-linecap:round"
         x="7.9151921"
         y="158.45952"
         id="text2459"><tspan
           sodipodi:role="line"
           id="tspan2457"
           style="text-align:start;text-anchor:start;fill:#ffffff;stroke-width:1.17584"
           x="7.9151921"
           y="158.45952"><tspan
             style="font-style:normal;font-variant:normal;font-weight:normal;font-stretch:normal;font-family:Poppins;-inkscape-font-specification:Poppins;fill:#000000;fill-opacity:1;stroke-width:1.17584"
             id="tspan2571">mentor</tspan><tspan
             style="font-style:normal;font-variant:normal;font-weight:600;font-stretch:normal;font-family:Poppins;-inkscape-font-specification:'Poppins Semi-Bold';fill:#ffffff;fill-opacity:1;stroke-width:1.17584"
             id="tspan2569">ings</tspan></tspan></text>
      <text
         xml:space="preserve"
         style="font-size:8.05705px;font-family:Poppins;-inkscape-font-specification:Poppins;text-align:start;text-anchor:start;display:inline;fill:#ffffff;stroke-width:0.367101;stroke-linecap:round"
         x="9.3350649"
         y="174.88992"
         id="text2513"><tspan
           sodipodi:role="line"
           id="tspan2511"
           style="font-style:normal;font-variant:normal;font-weight:normal;font-stretch:normal;font-family:Poppins;-inkscape-font-specification:Poppins;text-align:start;text-anchor:start;fill:#000000;stroke-width:0.367101"
           x="9.3350649"
           y="174.88992">Ingenieure geben Schülern Nachhilfe </tspan></text>
      <rect
         style="display:inline;fill:#1a1a1a;stroke-width:0.721433;stroke-linecap:round"
         id="rect2573"
         width="116.21131"
         height="1.1335765"
         x="9.9797745"
         y="162.99622"
         ry="0.56678826" />
      <rect
         style="display:inline;fill:#1a1a1a;stroke-width:0.252283;stroke-linecap:round"
         id="rect2575"
         width="14.211049"
         height="1.1335765"
         x="142.173"
         y="162.99622"
         ry="0.56678826" />
      <path
         style="display:inline;fill:#000000;stroke-width:0.343884"
         d="m 153.39556,189.42214 c 0.40429,-1.57974 1.79967,-4.04604 2.93978,-5.1959 2.07977,-2.09756 4.35783,-2.86393 9.00598,-3.0297 4.47254,-0.15955 6.00414,-0.64502 7.30793,-2.31673 0.64677,-0.82925 0.66103,-0.99023 0.20355,-2.29783 -0.70564,-2.01712 -0.61372,-3.00428 0.41969,-4.50828 0.69255,-1.0079 0.81599,-1.42314 0.51364,-1.72808 -0.60561,-0.61079 -0.47688,-1.79563 0.30386,-2.79668 0.66776,-0.85618 0.67606,-0.97636 0.17153,-2.47557 -0.71984,-2.13844 -0.14759,-3.50455 2.1718,-5.18515 l 1.72456,-1.24961 -2.26834,-3.68894 c -3.82124,-6.21442 -3.66914,-5.88141 -3.56283,-7.80159 0.26342,-4.75458 0.21247,-5.19415 -0.95369,-8.22683 -1.0671,-2.77541 -1.24395,-3.02919 -2.22573,-3.1941 -0.92111,-0.15482 -9.70758,-1.34127 -12.70878,-1.71618 -4.99962,-0.62461 -14.52678,-2.05875 -14.41634,-2.17016 0.0764,-0.0771 2.65794,0.10498 5.73674,0.4046 3.07879,0.29956 6.59938,0.63418 7.82357,0.74362 1.22415,0.10943 4.91667,0.48936 8.20559,0.84431 3.28895,0.35495 6.01679,0.60815 6.0619,0.56265 0.19938,-0.20105 -2.08391,-4.33321 -3.26083,-5.90118 l -1.2971,-1.72807 -7.40823,0.10442 c -7.28772,0.10275 -7.4866,0.0866 -12.2118,-1.0015 -2.71604,-0.62536 -5.16996,-1.01322 -5.64688,-0.89249 -0.46389,0.11751 -1.89155,0.99889 -3.17256,1.95878 l -2.32913,1.74532 2.19226,-2.09773 c 1.20575,-1.15373 2.13029,-2.15715 2.05453,-2.2298 -0.2576,-0.247 -6.10741,-1.37734 -6.27156,-1.21179 -0.0898,0.0905 -0.28067,2.41372 -0.42409,5.16251 -0.20381,3.90592 -0.31459,4.65828 -0.50708,3.44374 -0.13547,-0.85476 -0.25905,-2.48654 -0.27467,-3.62619 -0.0156,-1.13967 -0.12274,-2.86443 -0.23814,-3.83282 l -0.20976,-1.76071 -3.42456,-0.81535 c -4.19448,-0.99866 -3.96413,-1.26982 0.32498,-0.38255 2.76285,0.57154 3.44653,0.5961 5.99903,0.21553 1.58445,-0.23613 5.18154,-0.60729 7.99353,-0.82449 2.81199,-0.21719 6.11429,-0.56142 7.33844,-0.76497 2.40921,-0.40062 3.75196,-0.3234 3.8658,0.22221 0.0404,0.19297 -1.06109,0.43088 -2.4961,0.5392 -2.93819,0.22193 -12.50711,1.66091 -13.50986,2.03179 -0.42815,0.15844 2.05844,0.77734 6.90628,1.71917 l 7.57534,1.4717 7.47538,-0.38043 c 9.57667,-0.48738 22.25179,-1.05936 23.54068,-1.06228 0.54929,-10e-4 0.91396,-0.0877 0.81037,-0.19214 -0.10359,-0.10442 -2.40211,-0.79277 -5.1078,-1.52948 -2.70568,-0.73674 -9.61916,-2.68258 -15.36329,-4.32405 l -10.44378,-2.98451 -3.25302,0.22695 c -1.78914,0.12474 -3.63822,0.27261 -4.10905,0.32838 -0.47083,0.0557 -2.08877,0.20272 -3.59542,0.32649 -1.50666,0.12364 -5.9716,0.52161 -9.9221,0.88419 -3.9505,0.36258 -7.23903,0.60244 -7.30784,0.53305 -0.14118,-0.14229 -0.26509,-0.12559 11.40877,-1.55947 4.70829,-0.57836 10.31206,-1.27779 12.4528,-1.55427 l 3.89225,-0.50273 11.68789,3.11664 c 13.4073,3.57511 23.85569,6.41777 25.47035,6.92963 1.02553,0.32512 1.46917,1.07718 0.85606,1.4512 -0.14118,0.0861 -5.26474,0.34604 -11.3855,0.57747 -6.1208,0.2314 -11.17132,0.45915 -11.22342,0.50604 -0.0521,0.0468 0.45662,0.91158 1.13051,1.92155 1.97847,2.96515 5.29556,10.53106 5.99279,13.66885 0.25033,1.12625 0.23168,2.14159 -0.0654,3.59271 l -0.41426,2.02277 2.97473,4.95314 c 1.7821,2.96732 2.97473,5.3253 2.97473,5.88141 0,0.72605 -0.41473,1.23724 -1.90409,2.34692 -1.04725,0.78026 -1.99534,1.65846 -2.10683,1.95151 -0.11138,0.29305 0.039,1.29499 0.33431,2.22654 0.53219,1.67846 0.52902,1.70333 -0.35038,2.75737 -0.73933,0.88619 -0.82022,1.17214 -0.48474,1.71393 0.60994,0.98499 0.49855,1.53837 -0.63644,3.16238 -1.03341,1.47867 -1.03622,1.49521 -0.50726,3.00726 0.88763,2.53733 -0.16903,4.50669 -3.08099,5.74212 -1.01492,0.43058 -2.50668,0.5913 -5.81646,0.62664 -3.87518,0.0415 -4.68387,0.15259 -6.24631,0.86004 -2.11217,0.9562 -3.9523,2.88744 -5.09771,5.35014 -0.45249,0.97287 -0.72329,1.38031 -0.60174,0.90546 z"
         id="path2786" />
    </g>
  </g>
</svg>
