<svg width="1920" height="381.75" version="1.1" viewBox="0 0 508 101" xmlns="http://www.w3.org/2000/svg">
 <g transform="translate(-.13401 5.7411)">
  <g transform="translate(0 .52917)" fill="#fff" stroke-linecap="round">
   <path d="m471.42 0.40326c-7.2253-0.0129-15.704-6e-3 -23.556 0.0398-8.6862 0.05066-17.372 0.13826-26.058 0.25993-4.4589 0.06246-8.9176 0.14565-13.376 0.24133-4.4313 0.0951-8.8623 0.20176-13.293 0.33073-4.325 0.1259-8.6497 0.26546-12.973 0.43253-4.1402 0.15998-8.2799 0.33551-12.418 0.5457-3.8766 0.19692-7.7526 0.41123-11.626 0.67025-3.5349 0.23641-7.0694 0.48713-10.598 0.80666-2.7655 0.25044-5.5285 0.53367-8.2848 0.87024-2.7002 0.32972-5.395 0.70603-8.0827 1.1255-2.638 0.41172-5.2693 0.86843-7.8925 1.3653-2.5795 0.48857-5.1512 1.0199-7.7143 1.5885-2.5248 0.56016-5.0408 1.1608-7.5479 1.7958-2.4738 0.62655-4.9381 1.2912-7.3933 1.987-2.4265 0.68762-4.8431 1.4105-7.2507 2.1616-2.3828 0.74333-4.7555 1.5193-7.1195 2.3203-2.3429 0.7938-4.6758 1.6175-7.0006 2.4629-2.3068 0.83885-4.6039 1.7046-6.8936 2.589-2.2745 0.87851-4.5398 1.7809-6.7986 2.6991-2.2458 0.9129-4.483 1.8472-6.7148 2.7936-2.221 0.94179-4.4344 1.9014-6.6435 2.8706-2.2 0.96524-4.3947 1.9426-6.5836 2.9326-4.3566 1.9704-8.6967 3.9772-13.036 5.9857-4.3194 1.9993-8.6217 4.0353-12.94 6.0374-4.3079 1.9973-8.615 3.9968-12.938 5.9609-2.1609 0.98176-4.327 1.9522-6.4983 2.9109-2.1729 0.9594-4.3497 1.9101-6.534 2.8432-2.1873 0.93447-4.3796 1.8574-6.5805 2.7595-2.2061 0.90425-4.4184 1.7936-6.6399 2.6593-2.2289 0.86856-4.4649 1.7192-6.7107 2.543-2.2558 0.82746-4.5196 1.6336-6.7934 2.4102-2.2871 0.78107-4.5827 1.5378-6.8885 2.2619-2.3222 0.72923-4.6533 1.4309-6.9944 2.097-2.3617 0.67201-4.7325 1.3133-7.1127 1.9162-2.4054 0.60926-4.8198 1.1843-7.243 1.7188-2.4534 0.54108-4.9153 1.0452-7.3851 1.5059-2.5057 0.46734-5.0219 0.87786-7.5396 1.2759-5.6946 0.9003-11.406 1.6942-17.112 2.5156-6.5103 0.93713-13.024 1.8512-19.539 2.7528-13.514 1.87-27.033 3.702-40.555 5.5103-15.455 2.0667-46.376 6.1025-46.376 6.1025v0.20464h508v-94.593s-6.7065-0.10163-17.6-0.18086c-5.4467-0.0396-11.94-0.0734-19.166-0.0863z" stroke-width=".31552"/>
   <path d="m508.23-1.1206s-91.705-5.8156-137.18-4.398c-45.471 1.4175-66.304 7.8632-99.528 21.742-34.374 14.359-65.803 33.025-113.16 47.313-44.42 13.401-157.79 18.782-158.23 18.836l0.044487 12.888s82.432-5.5683 123.54-11.541c81.28-11.81 134.26-63.784 223.75-71.312 53.359-4.4886 160.66-2.9309 160.66-2.9309z" opacity=".5" stroke-width=".2517"/>
  </g>
 </g>
</svg>
